<svg xmlns="http://www.w3.org/2000/svg" width="960" height="176" viewBox="0 0 960 176">
  <g id="Grupo_10152" data-name="Grupo 10152" transform="translate(-110 -955)">
    <text id="Productivos:_trabajo_maquinaria._" data-name="Productivos: trabajo, maquinaria. " transform="translate(110 1033)" fill="#00223d" font-size="16" font-family="OpenSans, Open Sans"><tspan x="0" y="17">Productivos: </tspan><tspan x="0" y="39">trabajo, </tspan><tspan x="0" y="61">maquinaria. </tspan></text>
    <text id="Financieros:_recursos_financieros_para_invertir._" data-name="Financieros: recursos financieros para invertir. " transform="translate(280 1033)" fill="#00223d" font-size="16" font-family="OpenSans, Open Sans"><tspan x="0" y="17">Financieros: </tspan><tspan x="0" y="39">recursos financieros </tspan><tspan x="0" y="61">para invertir. </tspan></text>
    <text id="Materiales:_bienes_económicos._" data-name="Materiales: bienes económicos. " transform="translate(775 1033)" fill="#00223d" font-size="16" font-family="OpenSans, Open Sans"><tspan x="0" y="17">Materiales: </tspan><tspan x="0" y="39">bienes </tspan><tspan x="0" y="61">económicos. </tspan></text>
    <g id="Grupo_4145" data-name="Grupo 4145" transform="translate(9 312)">
      <g id="Elipse_504" data-name="Elipse 504" transform="translate(105 643)" fill="none" stroke="#ca9c2c" stroke-width="5">
        <ellipse cx="33.5" cy="32" rx="33.5" ry="32" stroke="none"/>
        <ellipse cx="33.5" cy="32" rx="31" ry="29.5" fill="none"/>
      </g>
      <text id="_1" data-name="1" transform="translate(130.347 690.414)" fill="#868988" font-size="42.237" font-family="Montserrat-Bold, Montserrat" font-weight="700"><tspan x="0" y="0">1</tspan></text>
    </g>
    <g id="Grupo_4146" data-name="Grupo 4146" transform="translate(-6 312)">
      <g id="Elipse_505" data-name="Elipse 505" transform="translate(285 643)" fill="none" stroke="#ca9c2c" stroke-width="5">
        <ellipse cx="33.5" cy="32" rx="33.5" ry="32" stroke="none"/>
        <ellipse cx="33.5" cy="32" rx="31" ry="29.5" fill="none"/>
      </g>
      <text id="_2" data-name="2" transform="translate(306.347 690.414)" fill="#868988" font-size="42.237" font-family="Montserrat-Bold, Montserrat" font-weight="700"><tspan x="0" y="0">2</tspan></text>
    </g>
    <text id="Marketing:_recursos_para_vender._" data-name="Marketing: recursos para vender. " transform="translate(462 1030)" fill="#00223d" font-size="16" font-family="OpenSans, Open Sans"><tspan x="0" y="17">Marketing: </tspan><tspan x="0" y="39">recursos para </tspan><tspan x="0" y="61">vender. </tspan></text>
    <g id="Grupo_4147" data-name="Grupo 4147" transform="translate(-14 307)">
      <g id="Elipse_506" data-name="Elipse 506" transform="translate(477 648)" fill="none" stroke="#ca9c2c" stroke-width="5">
        <ellipse cx="33.5" cy="32" rx="33.5" ry="32" stroke="none"/>
        <ellipse cx="33.5" cy="32" rx="31" ry="29.5" fill="none"/>
      </g>
      <text id="_3" data-name="3" transform="translate(498.347 695.414)" fill="#868988" font-size="42.237" font-family="Montserrat-Bold, Montserrat" font-weight="700"><tspan x="0" y="0">3</tspan></text>
    </g>
    <text id="Humanos:_personas._" data-name="Humanos: personas. " transform="translate(615 1033)" fill="#00223d" font-size="16" font-family="OpenSans, Open Sans"><tspan x="0" y="17">Humanos: </tspan><tspan x="0" y="39">personas. </tspan></text>
    <g id="Elipse_507" data-name="Elipse 507" transform="translate(616 955)" fill="none" stroke="#ca9c2c" stroke-width="5">
      <ellipse cx="33.5" cy="32" rx="33.5" ry="32" stroke="none"/>
      <ellipse cx="33.5" cy="32" rx="31" ry="29.5" fill="none"/>
    </g>
    <text id="_4" data-name="4" transform="translate(634.347 1002.414)" fill="#868988" font-size="42.237" font-family="Montserrat-Bold, Montserrat" font-weight="700"><tspan x="0" y="0">4</tspan></text>
    <g id="Grupo_4149" data-name="Grupo 4149" transform="translate(-17 312)">
      <g id="Elipse_508" data-name="Elipse 508" transform="translate(795 643)" fill="none" stroke="#ca9c2c" stroke-width="5">
        <ellipse cx="33.5" cy="32" rx="33.5" ry="32" stroke="none"/>
        <ellipse cx="33.5" cy="32" rx="31" ry="29.5" fill="none"/>
      </g>
      <text id="_5" data-name="5" transform="translate(816.347 690.414)" fill="#868988" font-size="42.237" font-family="Montserrat-Bold, Montserrat" font-weight="700"><tspan x="0" y="0">5</tspan></text>
    </g>
    <text id="Inmateriales:_conocimientos_técnicos_y_económicos._" data-name="Inmateriales: conocimientos técnicos y económicos. " transform="translate(943 1033)" fill="#00223d" font-size="16" font-family="OpenSans, Open Sans"><tspan x="0" y="17">Inmateriales: </tspan><tspan x="0" y="39">conocimientos </tspan><tspan x="0" y="61">técnicos y </tspan><tspan x="0" y="83">económicos. </tspan></text>
    <g id="Elipse_509" data-name="Elipse 509" transform="translate(957 955)" fill="none" stroke="#ca9c2c" stroke-width="5">
      <ellipse cx="33.5" cy="32" rx="33.5" ry="32" stroke="none"/>
      <ellipse cx="33.5" cy="32" rx="31" ry="29.5" fill="none"/>
    </g>
    <text id="_6" data-name="6" transform="translate(976.347 1002.414)" fill="#868988" font-size="42.237" font-family="Montserrat-Bold, Montserrat" font-weight="700"><tspan x="0" y="0">6</tspan></text>
  </g>
</svg>
