<svg xmlns="http://www.w3.org/2000/svg" width="558.236" height="505.26" viewBox="0 0 558.236 505.26">
  <g id="Grupo_4143" data-name="Grupo 4143" transform="translate(-569.852 12.26)">
    <g id="Grupo_3857" data-name="Grupo 3857" transform="translate(18 52)">
      <path id="Trazado_8144" data-name="Trazado 8144" d="M.125,216.257a27.869,27.869,0,0,0,29.839,30.417c4.844.265,61.068-4.7,77.342,28.568a53.929,53.929,0,0,0,86.25,13.328l23.5-21.01a74.353,74.353,0,0,1,40.224-19.195l44.2-6.265a78.568,78.568,0,0,0,8.628-1.223l.106-.015v-.006A79.134,79.134,0,0,0,289.3,84.316l-43.487-.584a74.362,74.362,0,0,1-59.768-31.5,107.351,107.351,0,0,1-8.314-13.949c0-.01-.036-.015-.051-.023A67.121,67.121,0,0,0,50.253,60.832c-.048.5-4.264,74.694-4.264,74.694-.007.108-.014.215-.021.323a73.809,73.809,0,0,1-21.26,46.961L8.8,198.549A27.764,27.764,0,0,0,.125,216.257Z" transform="translate(753.84 -56.314) rotate(30)" fill="#fafafa"/>
      <path id="Trazado_8145" data-name="Trazado 8145" d="M.154,266.745a34.376,34.376,0,0,0,36.806,37.518c5.975.326,75.325-5.8,95.4,35.237A66.519,66.519,0,0,0,238.745,355.94l28.985-25.914a91.712,91.712,0,0,1,49.615-23.676l54.515-7.727a96.932,96.932,0,0,0,10.643-1.509l.131-.019v-.007A97.609,97.609,0,0,0,356.835,104l-53.64-.72a91.723,91.723,0,0,1-73.722-38.855c-4.543-6.442-9.66-15.515-10.255-17.206-.005-.013-.044-.019-.063-.028A82.791,82.791,0,0,0,61.985,75.034c-.059.62-5.26,92.132-5.26,92.132-.008.133-.017.265-.026.4a91.041,91.041,0,0,1-26.223,57.924L10.86,244.9A34.246,34.246,0,0,0,.154,266.745Z" transform="matrix(0.946, -0.326, 0.326, 0.946, 551.852, 85.849)" fill="#f4f4f4" opacity="0.795"/>
      <g id="MF1-AUD-IMA08" transform="translate(568.847 36.591)">
        <rect id="Rectángulo_1591" data-name="Rectángulo 1591" width="66.153" height="63.041" transform="translate(273.615 0)" fill="#e4efff"/>
        <rect id="Rectángulo_1592" data-name="Rectángulo 1592" width="43.455" height="1.781" transform="translate(284.99 14.693)" fill="#d9e1e4"/>
        <rect id="Rectángulo_1593" data-name="Rectángulo 1593" width="14.084" height="1.781" transform="translate(284.174 10.892)" fill="#d9e1e4"/>
        <rect id="Rectángulo_1594" data-name="Rectángulo 1594" width="2.326" height="2.326" transform="translate(284.75 23.388)" fill="#d9e1e4"/>
        <rect id="Rectángulo_1595" data-name="Rectángulo 1595" width="2.326" height="2.326" transform="translate(291.695 23.388)" fill="#d9e1e4"/>
        <rect id="Rectángulo_1596" data-name="Rectángulo 1596" width="2.326" height="2.326" transform="translate(298.64 23.388)" fill="#d9e1e4"/>
        <rect id="Rectángulo_1597" data-name="Rectángulo 1597" width="2.326" height="2.326" transform="translate(305.584 23.388)" fill="#bac2c6"/>
        <rect id="Rectángulo_1598" data-name="Rectángulo 1598" width="2.326" height="2.326" transform="translate(312.529 23.388)" fill="#bac2c6"/>
        <rect id="Rectángulo_1599" data-name="Rectángulo 1599" width="2.326" height="2.326" transform="translate(319.474 23.388)" fill="#ffc40e"/>
        <rect id="Rectángulo_1600" data-name="Rectángulo 1600" width="2.326" height="2.326" transform="translate(326.419 23.388)" fill="#ffc40e"/>
        <rect id="Rectángulo_1601" data-name="Rectángulo 1601" width="2.326" height="2.326" transform="translate(284.75 29.194)" fill="#bac2c6"/>
        <rect id="Rectángulo_1602" data-name="Rectángulo 1602" width="2.326" height="2.326" transform="translate(291.695 29.194)" fill="#bac2c6"/>
        <rect id="Rectángulo_1603" data-name="Rectángulo 1603" width="2.326" height="2.326" transform="translate(298.64 29.194)" fill="#bac2c6"/>
        <rect id="Rectángulo_1604" data-name="Rectángulo 1604" width="2.326" height="2.326" transform="translate(305.584 29.194)" fill="#bac2c6"/>
        <rect id="Rectángulo_1605" data-name="Rectángulo 1605" width="2.326" height="2.326" transform="translate(312.529 29.194)" fill="#bac2c6"/>
        <rect id="Rectángulo_1606" data-name="Rectángulo 1606" width="2.326" height="2.326" transform="translate(319.474 29.194)" fill="#ffc40e"/>
        <rect id="Rectángulo_1607" data-name="Rectángulo 1607" width="2.326" height="2.326" transform="translate(326.419 29.194)" fill="#ffc40e"/>
        <rect id="Rectángulo_1608" data-name="Rectángulo 1608" width="2.326" height="2.326" transform="translate(284.75 34.985)" fill="#bac2c6"/>
        <rect id="Rectángulo_1609" data-name="Rectángulo 1609" width="2.326" height="2.326" transform="translate(291.695 34.985)" fill="#bac2c6"/>
        <rect id="Rectángulo_1610" data-name="Rectángulo 1610" width="2.326" height="2.326" transform="translate(298.64 34.985)" fill="#3bb6d5"/>
        <rect id="Rectángulo_1611" data-name="Rectángulo 1611" width="2.326" height="2.326" transform="translate(305.584 34.985)" fill="#3bb6d5"/>
        <rect id="Rectángulo_1612" data-name="Rectángulo 1612" width="2.326" height="2.326" transform="translate(312.529 34.985)" fill="#bac2c6"/>
        <rect id="Rectángulo_1613" data-name="Rectángulo 1613" width="2.326" height="2.326" transform="translate(319.474 34.985)" fill="#ffc40e"/>
        <rect id="Rectángulo_1614" data-name="Rectángulo 1614" width="2.326" height="2.326" transform="translate(326.419 34.985)" fill="#ffc40e"/>
        <rect id="Rectángulo_1615" data-name="Rectángulo 1615" width="2.326" height="2.326" transform="translate(284.75 40.792)" fill="#165670"/>
        <rect id="Rectángulo_1616" data-name="Rectángulo 1616" width="2.326" height="2.326" transform="translate(291.695 40.792)" fill="#bac2c6"/>
        <rect id="Rectángulo_1617" data-name="Rectángulo 1617" width="2.326" height="2.326" transform="translate(298.64 40.792)" fill="#bac2c6"/>
        <rect id="Rectángulo_1618" data-name="Rectángulo 1618" width="2.326" height="2.326" transform="translate(305.584 40.792)" fill="#bac2c6"/>
        <rect id="Rectángulo_1619" data-name="Rectángulo 1619" width="2.326" height="2.326" transform="translate(312.529 40.792)" fill="#bac2c6"/>
        <rect id="Rectángulo_1620" data-name="Rectángulo 1620" width="2.326" height="2.326" transform="translate(319.474 40.792)" fill="#ffc40e"/>
        <rect id="Rectángulo_1621" data-name="Rectángulo 1621" width="2.326" height="2.326" transform="translate(326.419 40.792)" fill="#ffc40e"/>
        <rect id="Rectángulo_1622" data-name="Rectángulo 1622" width="2.326" height="2.326" transform="translate(284.75 46.599)" fill="#bac2c6"/>
        <rect id="Rectángulo_1623" data-name="Rectángulo 1623" width="2.326" height="2.326" transform="translate(291.695 46.599)" fill="#bac2c6"/>
        <rect id="Rectángulo_1624" data-name="Rectángulo 1624" width="2.326" height="2.326" transform="translate(298.64 46.599)" fill="#bac2c6"/>
        <rect id="Rectángulo_1625" data-name="Rectángulo 1625" width="2.326" height="2.326" transform="translate(305.584 46.599)" fill="#bac2c6"/>
        <rect id="Rectángulo_1626" data-name="Rectángulo 1626" width="2.326" height="2.326" transform="translate(312.529 46.599)" fill="#bac2c6"/>
        <rect id="Rectángulo_1627" data-name="Rectángulo 1627" width="2.326" height="2.326" transform="translate(319.474 46.599)" fill="#ffc40e"/>
        <rect id="Rectángulo_1628" data-name="Rectángulo 1628" width="2.326" height="2.326" transform="translate(326.419 46.599)" fill="#ffc40e"/>
        <rect id="Rectángulo_1629" data-name="Rectángulo 1629" width="2.326" height="2.326" transform="translate(284.75 52.406)" fill="#bac2c6"/>
        <rect id="Rectángulo_1630" data-name="Rectángulo 1630" width="2.326" height="2.326" transform="translate(291.695 52.406)" fill="#bac2c6"/>
        <rect id="Rectángulo_1631" data-name="Rectángulo 1631" width="2.326" height="2.326" transform="translate(298.64 52.406)" fill="#bac2c6"/>
        <rect id="Rectángulo_1632" data-name="Rectángulo 1632" width="2.326" height="2.326" transform="translate(305.584 52.406)" fill="#bac2c6"/>
        <rect id="Rectángulo_1633" data-name="Rectángulo 1633" width="2.326" height="2.326" transform="translate(312.529 52.406)" fill="#bac2c6"/>
        <rect id="Rectángulo_1634" data-name="Rectángulo 1634" width="2.326" height="2.326" transform="translate(319.474 52.406)" fill="#d9e1e4"/>
        <rect id="Rectángulo_1635" data-name="Rectángulo 1635" width="2.326" height="2.326" transform="translate(326.419 52.406)" fill="#d9e1e4"/>
        <path id="Trazado_3576" data-name="Trazado 3576" d="M310.044,200.833c75.232.818,125.119,11.967,168.061,18.03,35.531,5.021,72.04,17.436,65.5,23.051s-38.707,10.507-81.712,15.062c-43.311,4.459-97.4,8.63-154.939,10.86-112.142,4.812-216.7-3.112-241.689-20.949S156.324,198.635,310.044,200.833Z" transform="translate(-61.862 34.495)" fill="#0d47a1" opacity="0.377"/>
        <rect id="Rectángulo_1637" data-name="Rectángulo 1637" width="168.269" height="37.873" rx="2.2" transform="translate(311.256 46.021)" fill="#e4efff"/>
        <path id="Trazado_3577" data-name="Trazado 3577" d="M281.724,89.67h-36.3A3.529,3.529,0,0,0,241.91,93.2V124.03a3.513,3.513,0,0,0,3.513,3.529h36.3Z" transform="translate(64.155 -43.649)" fill="#86c0f0"/>
        <line id="Línea_195" data-name="Línea 195" x2="39.765" transform="translate(359.135 57.908)" fill="none" stroke="#acd5f4" stroke-width="4.73"/>
        <line id="Línea_196" data-name="Línea 196" x2="20.372" transform="translate(405.043 57.908)" fill="none" stroke="#acd5f4" stroke-width="4.73"/>
        <line id="Línea_197" data-name="Línea 197" x2="15.864" transform="translate(382.772 65.607)" fill="none" stroke="#acd5f4" stroke-width="4.73"/>
        <line id="Línea_198" data-name="Línea 198" x2="8.935" transform="translate(389.849 75.669)" fill="none" stroke="#acd5f4" stroke-width="4.73"/>
        <line id="Línea_199" data-name="Línea 199" x2="3.641" transform="translate(374.026 65.607)" fill="none" stroke="#acd5f4" stroke-width="4.73"/>
        <line id="Línea_200" data-name="Línea 200" x2="11.533" transform="translate(358.292 65.607)" fill="none" stroke="#acd5f4" stroke-width="4.73"/>
        <line id="Línea_201" data-name="Línea 201" x2="26.435" transform="translate(358.796 75.669)" fill="none" stroke="#acd5f4" stroke-width="4.73"/>
        <line id="Línea_202" data-name="Línea 202" x2="19.698" transform="translate(404.033 65.607)" fill="none" stroke="#acd5f4" stroke-width="4.73"/>
        <line id="Línea_203" data-name="Línea 203" x2="21.318" transform="translate(403.23 75.669)" fill="none" stroke="#acd5f4" stroke-width="4.73"/>
        <path id="Trazado_3578" data-name="Trazado 3578" d="M326.285,95a9.625,9.625,0,1,0,9.625,9.625A9.624,9.624,0,0,0,326.285,95Z" transform="translate(115.602 -38.552)" fill="#fec12f"/>
        <path id="Trazado_3579" data-name="Trazado 3579" d="M343.347,85.353l-3.272-3.272V76.29H338.31v6.529L342.1,86.6Z" transform="translate(102.602 -16.213)" fill="#fff"/>
        <path id="Trazado_3672" data-name="Trazado 3672" d="M229.811,194.11l-3.32,5.053,27.863,8.935s1.861-1.781-4.973-5.358C241.408,198.569,229.811,194.11,229.811,194.11Z" transform="translate(53.037 26.668)" fill="#88bdda"/>
        <path id="Trazado_3673" data-name="Trazado 3673" d="M234.8,194.11l3.32,5.053L210.257,208.1s-1.861-1.781,4.973-5.358C223.186,198.569,234.8,194.11,234.8,194.11Z" transform="translate(41.546 26.668)" fill="#88bdda"/>
        <rect id="Rectángulo_1638" data-name="Rectángulo 1638" width="5.823" height="20.741" transform="translate(276.757 205.347)" fill="#88bdda"/>
        <path id="Trazado_3674" data-name="Trazado 3674" d="M229.859,194.78l-2.839,4.812,23.853,8.518s1.6-1.7-4.267-5.117a185.362,185.362,0,0,0-16.747-8.213Z" transform="translate(53.297 27.094)" fill="#91e2f6"/>
        <path id="Trazado_3675" data-name="Trazado 3675" d="M233.229,194.78l2.839,4.812-23.853,8.518s-1.6-1.7,4.251-5.117a184.7,184.7,0,0,1,16.763-8.213Z" transform="translate(42.834 27.094)" fill="#91e2f6"/>
        <path id="Trazado_3676" data-name="Trazado 3676" d="M240.21,205.051a2.005,2.005,0,1,0,.587-1.434,2.021,2.021,0,0,0-.587,1.434Z" transform="translate(61.932 32.313)" fill="#001f46"/>
        <path id="Trazado_3677" data-name="Trazado 3677" d="M211.39,205.051a2.021,2.021,0,1,0,2.021-2.021A2.021,2.021,0,0,0,211.39,205.051Z" transform="translate(41.927 32.313)" fill="#001f46"/>
        <path id="Trazado_3678" data-name="Trazado 3678" d="M243.26,205.051a2.005,2.005,0,1,0,.587-1.434,2.021,2.021,0,0,0-.587,1.434Z" transform="translate(64.048 32.313)" fill="#367082"/>
        <path id="Trazado_3679" data-name="Trazado 3679" d="M208.34,205.069a2.005,2.005,0,1,0,.57-1.465A2.021,2.021,0,0,0,208.34,205.069Z" transform="translate(39.81 32.293)" fill="#367082"/>
        <rect id="Rectángulo_1639" data-name="Rectángulo 1639" width="4.251" height="7.459" transform="translate(277.616 197.235)" fill="#367082"/>
        <path id="Trazado_3680" data-name="Trazado 3680" d="M223.74,179.1a4.139,4.139,0,0,0,4.155,4.139h2.342a4.139,4.139,0,0,0,4.155-4.139h0a4.139,4.139,0,0,0-4.155-4.155h-2.342a4.138,4.138,0,0,0-4.155,4.155Z" transform="translate(50.664 13.948)" fill="#367082"/>
        <path id="Trazado_3681" data-name="Trazado 3681" d="M207.38,178.994c-.1-.5-.16-3.561-.16-4.09,0-3.353,2.166-6.063,4.812-6.063h53.962c2.663,0,4.812,2.711,4.812,6.063a34.616,34.616,0,0,1-.16,4.09Z" transform="translate(40.498 9.963)" fill="#0d47a1"/>
        <path id="Trazado_3682" data-name="Trazado 3682" d="M271.555,176.891c0,1.027-.61,1.861-1.347,1.861h-61.95c-.738,0-1.347-.834-1.347-1.861h0c0-1.027.61-1.861,1.347-1.861h61.95C270.945,175.03,271.555,175.864,271.555,176.891Z" transform="translate(40.309 13.918)" fill="#367082"/>
        <path id="Trazado_3683" data-name="Trazado 3683" d="M226.126,177.737s34.7.08,48.123.289c9.256.128,10.106-13.073,6.416-15.062-11.1-6.047-45.717-9.143-45.717-9.143L211.4,175.443S212.715,175.411,226.126,177.737Z" transform="translate(43.662 0.305)" fill="#3d7aa8"/>
        <path id="Trazado_3684" data-name="Trazado 3684" d="M242.036,124.685s8.919-2.5,12.833,9.143c5.951,17.886,5.422,34.279,4.588,37.776-.369,1.6-1.524,7.154-11.485,7.379-4.042.08-2.422-8.582-2.422-8.582a187.985,187.985,0,0,1-5.358-19.794C237.368,138.16,242.036,124.685,242.036,124.685Z" transform="translate(61.752 -18.7)" fill="#74b2e8"/>
        <path id="Trazado_3685" data-name="Trazado 3685" d="M268.744,128.44l-22.874-7.395-17.324-1.155-18.976,5.727s-6.208,4.283-.433,18.046,3.545,35.29,3.545,35.29l48.957,1.6a394.738,394.738,0,0,1,4.171-39.846C266.547,136.236,266.547,131.006,268.744,128.44Z" transform="translate(40.075 -21.663)" fill="#86c0f0"/>
        <path id="Trazado_3686" data-name="Trazado 3686" d="M224.51,179.041h2.5a207.264,207.264,0,0,0-.385-58.261l-2.246,1.347C224.991,141.73,223.916,161.332,224.51,179.041Z" transform="translate(50.918 -21.102)" fill="#74b2e8"/>
        <path id="Trazado_3687" data-name="Trazado 3687" d="M237.163,132.865a5.694,5.694,0,0,1-4.812,5.053h-6.416a5.7,5.7,0,0,1-4.812-5.053l-1.6-13.089c-.353-2.615,1.2-7.86,4.636-9.416a12.383,12.383,0,0,1,9.913,0c3.433,1.6,4.989,6.8,4.636,9.416Z" transform="translate(47.911 -29.029)" fill="#e6b09c"/>
        <path id="Trazado_3688" data-name="Trazado 3688" d="M245.94,110.021l-4.106,6.721-7.523-9.4,1.187-4.957,2.438-2.005.032,3.738Z" transform="translate(30.557 -0.307)" fill="#74b2e8"/>
        <path id="Trazado_3689" data-name="Trazado 3689" d="M241.87,110.033l4.106,6.721L252.97,108l-1.139-5.374-1.765-2.262-.706,4.4Z" transform="translate(35.8 -0.32)" fill="#74b2e8"/>
        <path id="Trazado_3690" data-name="Trazado 3690" d="M228.706,104.76a5.181,5.181,0,0,0-4.331,2.342H222.61a4.01,4.01,0,0,0-4.01,4.01v9.913h2.823V117a2.807,2.807,0,0,1,2.807-2.823H225a5.181,5.181,0,0,0,5.181-5.181V104.76Z" transform="translate(47.114 -32.14)" fill="#163f59"/>
        <path id="Trazado_3691" data-name="Trazado 3691" d="M223.7,119.248a2.454,2.454,0,0,1-2.454,2.454h-.193a2.454,2.454,0,0,1-2.454-2.454v-2.984a2.438,2.438,0,0,1,2.454-2.454h.192a2.47,2.47,0,0,1,2.262,1.46" transform="translate(46.957 -26.251)" fill="#e6b09c"/>
        <path id="Trazado_3692" data-name="Trazado 3692" d="M223.53,108.706V104.76h8.5a5.181,5.181,0,0,1,5.165,5.181v3.93h-8.486a5.181,5.181,0,0,1-5.181-5.165Z" transform="translate(50.594 -32.192)" fill="#163f59"/>
        <path id="Trazado_3693" data-name="Trazado 3693" d="M238.982,127.59a8.133,8.133,0,0,1-4.187,6.657,15.062,15.062,0,0,1-11.229,0,8.02,8.02,0,0,1-4.187-6.641V110.074a4.331,4.331,0,0,1,4.6-3.85h10.443a4.331,4.331,0,0,1,4.6,3.85Z" transform="translate(47.858 -31.081)" fill="#ffc4ad"/>
        <path id="Trazado_3694" data-name="Trazado 3694" d="M228.379,104.76a5.181,5.181,0,0,1,4.331,2.342h1.78a4.01,4.01,0,0,1,3.994,4.01v9.913h-2.807V117a2.823,2.823,0,0,0-2.823-2.823h-3.609A5.181,5.181,0,0,1,224,108.995V104.76Z" transform="translate(50.942 -32.14)" fill="#163f59"/>
        <path id="Trazado_3695" data-name="Trazado 3695" d="M229.87,116.264a2.438,2.438,0,0,1,2.454-2.454h.209a2.454,2.454,0,0,1,2.454,2.454v2.984a2.47,2.47,0,0,1-2.454,2.454h-.208a2.486,2.486,0,0,1-2.246-1.46" transform="translate(54.782 -26.251)" fill="#ffc4ad"/>
        <path id="Trazado_3696" data-name="Trazado 3696" d="M227.262,109.717a5.276,5.276,0,0,0,.112-1.011V104.76H223.7a5.181,5.181,0,0,0-5.1,5.2v3.93h3.657a4.557,4.557,0,0,0,1.059-.112,5.2,5.2,0,0,1,3.946-4.058Z" transform="translate(47.045 -32.192)" fill="#163f59"/>
        <path id="Trazado_3697" data-name="Trazado 3697" d="M195.825,213.224c-.529.658-.144,2.358-.144,2.358s9.352,1.043,12.352.337a16.394,16.394,0,0,0,3.337-1.6c.209-.128.594-.834.786-.962s.578.16.9,0a9.852,9.852,0,0,0,1.428-.995c.818-4.283-.273-6-.273-6s-8.02-2.647-9.448-.8C201.263,209.871,197,211.812,195.825,213.224Z" transform="translate(31.247 33.709)" fill="#161711"/>
        <path id="Trazado_3698" data-name="Trazado 3698" d="M250.14,208.73l.642,7.058,7.154.658s.481-.946,1.091-.882,1.059,1.091,1.732,1.155l3.8.369,14.164,1.4s.465-1.428.128-1.973a7.186,7.186,0,0,0-2.085-1.139c-3.545-1.38-13.667-5.6-15.143-9.272C259.749,201.672,250.14,208.73,250.14,208.73Z" transform="translate(69.566 33.597)" fill="#161711"/>
        <path id="Trazado_3699" data-name="Trazado 3699" d="M252.475,151.5l-23.885,9.769s16.955,2.406,27.542.257C263.287,160.069,252.812,151.2,252.475,151.5Z" transform="translate(54.556 -1.434)" fill="#ffc4ad"/>
        <path id="Trazado_3700" data-name="Trazado 3700" d="M217.363,161.467s-2.31,21.8-1.973,33.333a251.833,251.833,0,0,1-1.8,39.573c-.128.866-11.229.209-11.229.209s-3.978-54.058-5.165-62.961S199.445,156.286,217.363,161.467Z" transform="translate(32.276 5.191)" fill="#3d7aa8"/>
        <path id="Trazado_3701" data-name="Trazado 3701" d="M258.588,165.494s-3.577,5.646-13.394,6.978c-3.545.481,5.727,63.3,5.727,63.3l14.437-4.652-2.807-69.457Z" transform="translate(65.315 6.535)" fill="#316091"/>
        <path id="Trazado_3702" data-name="Trazado 3702" d="M246.153,177.22s-18.96,2.711-31.617,4.042c-4.652.481-8.662-12.512-9.207-13.073a9.625,9.625,0,0,0-6.609-3.208c2.743-2.968,16.939-5.711,31.793-9.208s17.1-1.283,17.1-1.283Z" transform="translate(34.144 0.345)" fill="#316091"/>
        <path id="Trazado_3703" data-name="Trazado 3703" d="M230.513,155.73c-14.854,3.5-29.05,6.24-31.793,9.208a9.625,9.625,0,0,1,6.609,3.208c.16.16,1.011,4.315,1.6,5.807-2.422-4.347,32.467-16.651,40.006-19.827C245.544,153.725,241.437,153.211,230.513,155.73Z" transform="translate(34.128 0.221)" fill="#3d7aa8"/>
        <path id="Trazado_3704" data-name="Trazado 3704" d="M227.552,148.892l-1.444,42.428-1.46,9.849-.16-9.849.321-6.128-3.385-9.512-1.764-22.1,2.566.962-.321-9.689Z" transform="translate(20.289 29.792)" fill="#316091"/>
        <path id="Trazado_3705" data-name="Trazado 3705" d="M255.066,160.76l3.545.962,1.3,50.994-7.427,18.239,3.545-12.432-1.444-25.665s-5.165,12.416-5.165,11.774,4.347-26.949,4.347-26.949a56.135,56.135,0,0,0-4.347,3.882C249.9,181.4,252.323,163.182,255.066,160.76Z" transform="translate(68.51 5.836)" fill="#3d7aa8"/>
        <path id="Trazado_3706" data-name="Trazado 3706" d="M227.463,124.194s-7.619-5.967-15.078,5.117c-10.924,16.249-15.672,33.526-17.42,38.5-1.331,3.834-.594,14.677,3.882,19.153,1.075,1.075,7.523.209,7.523.209l4.235-2.936-1.765-3.4-.1-2.695s5.406-13.073,12.063-25.425S227.463,124.194,227.463,124.194Z" transform="translate(30.729 -19.801)" fill="#86c0f0"/>
        <path id="Trazado_3707" data-name="Trazado 3707" d="M204.114,154.56l24.751,1.283s-23.789,10.94-24.623,9.047C199.766,154.224,204.114,154.56,204.114,154.56Z" transform="translate(36.064 0.576)" fill="#ffc4ad"/>
        <path id="Trazado_3708" data-name="Trazado 3708" d="M211.969,154.346c1.444-.69,1.315-.706,1.315-.706a6.032,6.032,0,0,0,3.208,1.877c.946.144,4.026.176,4.026.176l4.556.112,2.117-.112a3.77,3.77,0,0,1,1.508,0c.914.577.128,1.059.128,1.059l-8.165,1.155,7.844.979s.995.289,1.043.818-.289.481-.289.481l-9.127.979,4.01.962s.946.3,1.027.818.112.722.112.722l-8.389-.818S210.541,155.052,211.969,154.346Z" transform="translate(42.505 -0.036)" fill="#ffc4ad"/>
        <path id="Trazado_3709" data-name="Trazado 3709" d="M217.866,157.23l5.486,1.011a4.427,4.427,0,0,1,1.8.481.738.738,0,0,1,.273,1.027L217,159.043Z" transform="translate(45.928 2.21)" fill="#ffc4ad"/>
        <path id="Trazado_3710" data-name="Trazado 3710" d="M257.364,160.524h0v-1.6H208.6v1.6h0l.16.3a4.251,4.251,0,0,0,4.026,1.6h40.375a4.267,4.267,0,0,0,4.042-1.6Z" transform="translate(41.072 3.336)" fill="#b6c2c9"/>
        <rect id="Rectángulo_1640" data-name="Rectángulo 1640" width="32.29" height="1.107" transform="translate(257.967 162.583)" fill="#879ba6"/>
        <path id="Trazado_3711" data-name="Trazado 3711" d="M257.358,171.644l.128-31.97a1.6,1.6,0,0,0-1.6-1.6h-45.6a1.6,1.6,0,0,0-1.6,1.6l-.064,31.97Z" transform="translate(41.081 -9.96)" fill="#e4eef3"/>
        <path id="Trazado_3712" data-name="Trazado 3712" d="M227.893,149.692a2.936,2.936,0,1,1-.854-2.086A2.952,2.952,0,0,1,227.893,149.692Z" transform="translate(49.33 -4.631)" fill="#b6c2c9"/>
        <path id="Trazado_3713" data-name="Trazado 3713" d="M218.25,146.507l-1.7-10.844,2.823-2.9,6.24.995-1.267,12.015Z" transform="translate(18.154 20.983)" fill="#74b2e8"/>
        <path id="Trazado_3714" data-name="Trazado 3714" d="M269.263,140.66l.642-3.994L262,129.56,257.73,131.5l5.6,10.7Z" transform="translate(46.856 18.86)" fill="#86c0f0"/>
        <path id="Trazado_3715" data-name="Trazado 3715" d="M123.343,216.93a9.9,9.9,0,0,1-6.513-2.358c-3.208-2.839-4.684-7.908-4.219-15.046.321-4.812,2.23-9.625,4.235-14.87,3.385-8.694,7.2-18.543,5.2-31.569l3.721-.577c2.166,14.036-2.037,24.831-5.406,33.51-1.989,5.1-3.705,9.512-3.978,13.747-.385,5.791.61,9.913,2.887,11.934a6.256,6.256,0,0,0,4.973,1.4l.754,3.689A8.167,8.167,0,0,1,123.343,216.93Z" transform="translate(-31.256 0.186)" fill="#367082"/>
        <path id="Trazado_3716" data-name="Trazado 3716" d="M147.583,211.29l3.673,5.6-30.8,9.865s-2.069-1.973,5.5-5.919C134.75,216.231,147.583,211.29,147.583,211.29Z" transform="translate(-21.119 38.015)" fill="#88bdda"/>
        <path id="Trazado_3717" data-name="Trazado 3717" d="M142.063,211.29l-3.673,5.6,30.8,9.865s2.053-1.973-5.5-5.919C154.9,216.231,142.063,211.29,142.063,211.29Z" transform="translate(-8.414 38.015)" fill="#88bdda"/>
        <rect id="Rectángulo_1641" data-name="Rectángulo 1641" width="6.432" height="22.906" transform="translate(127.268 232.284)" fill="#88bdda"/>
        <path id="Trazado_3718" data-name="Trazado 3718" d="M145.8,212l3.208,5.326-26.355,9.416s-1.764-1.877,4.7-5.646A203.729,203.729,0,0,1,145.8,212Z" transform="translate(-19.603 38.465)" fill="#91e2f6"/>
        <path id="Trazado_3719" data-name="Trazado 3719" d="M142.148,212l-3.208,5.326,26.355,9.416s1.765-1.877-4.7-5.646Q151.6,216.089,142.148,212Z" transform="translate(-8.087 38.465)" fill="#91e2f6"/>
        <path id="Trazado_3720" data-name="Trazado 3720" d="M126.088,223.314a2.246,2.246,0,1,1-2.238-2.056,2.246,2.246,0,0,1,2.238,2.056Z" transform="translate(-25.772 44.295)" fill="#001f46"/>
        <path id="Trazado_3721" data-name="Trazado 3721" d="M157.928,223.314a2.246,2.246,0,1,1-2.238-2.056,2.246,2.246,0,0,1,2.238,2.056Z" transform="translate(1.713 44.296)" fill="#001f46"/>
        <path id="Trazado_3722" data-name="Trazado 3722" d="M122.691,223.38a2.246,2.246,0,1,1-2.23-2.23A2.246,2.246,0,0,1,122.691,223.38Z" transform="translate(-27.829 44.224)" fill="#367082"/>
        <path id="Trazado_3723" data-name="Trazado 3723" d="M161.289,223.38a2.23,2.23,0,1,1-2.23-2.23,2.23,2.23,0,0,1,2.23,2.23Z" transform="translate(4.062 44.224)" fill="#367082"/>
        <rect id="Rectángulo_1642" data-name="Rectángulo 1642" width="4.7" height="8.245" transform="translate(128.062 223.255)" fill="#367082"/>
        <path id="Trazado_3724" data-name="Trazado 3724" d="M147.024,194.728a4.588,4.588,0,0,1-4.588,4.588h-2.583a4.6,4.6,0,0,1-4.6-4.588h0a4.6,4.6,0,0,1,4.6-4.588h2.583A4.588,4.588,0,0,1,147.024,194.728Z" transform="translate(-10.835 23.952)" fill="#367082"/>
        <path id="Trazado_3725" data-name="Trazado 3725" d="M187.147,194.589c.112-.545.176-3.93.176-4.524,0-3.705-2.39-6.705-5.342-6.705H122.358c-2.952,0-5.358,3-5.358,6.705a38.366,38.366,0,0,0,.176,4.524Z" transform="translate(-28.554 19.535)" fill="#0d47a1"/>
        <path id="Trazado_3726" data-name="Trazado 3726" d="M116.66,192.263c0,1.139.658,2.053,1.476,2.053H186.6c.818,0,1.492-.914,1.492-2.053h0c0-1.139-.674-2.053-1.492-2.053H118.136C117.318,190.21,116.66,191.124,116.66,192.263Z" transform="translate(-28.76 23.894)" fill="#367082"/>
        <path id="Trazado_3727" data-name="Trazado 3727" d="M118.843,183.958c1.476.112,10.812.273,12.432.3,10.218.112,19.041-1.8,19.522-4.315a87.359,87.359,0,0,0,.273-31.7c-.433-2.518-9.384-4.427-19.827-4.3-1.6,0-11.229.176-12.672.289a85.868,85.868,0,0,1,.273,39.717Z" transform="translate(-22.23 -5.964)" fill="#0d47a1"/>
        <path id="Trazado_3728" data-name="Trazado 3728" d="M118.538,144.13c-1.139,0-1.941.561-1.781,1.219a85.546,85.546,0,0,1,.321,37.3c-.144.658.642,1.2,1.765,1.219h0c1.123,0,2.166-.513,2.31-1.171A85.74,85.74,0,0,0,120.9,145.3c-.144-.658-1.2-1.187-2.358-1.171Z" transform="translate(-28.713 -5.852)" fill="#367082"/>
        <path id="Trazado_3729" data-name="Trazado 3729" d="M117.7,183.886a24.226,24.226,0,0,0,2.679.176,5.39,5.39,0,0,0,4.973-4.411,85.707,85.707,0,0,0-.144-31.2,5.486,5.486,0,0,0-5.085-4.411,25.42,25.42,0,0,0-2.743.176A85.674,85.674,0,0,1,117.7,183.886Z" transform="translate(-28.325 -5.906)" fill="#0d47a1"/>
        <path id="Trazado_3730" data-name="Trazado 3730" d="M131.9,110.69H126.85v2.583A6.256,6.256,0,0,1,131.9,110.69Z" transform="translate(-22.604 -28.344)" fill="#dce5ea"/>
        <path id="Trazado_3731" data-name="Trazado 3731" d="M133.4,110.69v7.122a6.24,6.24,0,0,1-6.24,6.24h-.289V135.04h22.265V110.69Z" transform="translate(-16.554 -28.165)" fill="#dce5ea"/>
        <path id="Trazado_3732" data-name="Trazado 3732" d="M140.051,121.1s-8.726,3.112-.353,28.1,13.956,21.976,13.956,21.976l6.93-.674,13.282-15.752-7.154-6.24-1.444.577a3.545,3.545,0,0,1-2.069-2.486c-.208-1.732-3.561-8.919-6.1-23.612C155.931,116.226,141.719,120.477,140.051,121.1Z" transform="translate(-9.952 -22.226)" fill="#cfd9e8"/>
        <path id="Trazado_3733" data-name="Trazado 3733" d="M164.385,145.387s17.212,8.79,28.056-8.229c3.208-5.053,1.845.77.08,6.3s-12.464,18.078-24.623,18.912-16.795.16-19.073-4.042S164.385,145.387,164.385,145.387Z" transform="translate(-1.046 -11.927)" fill="#ffc4ad"/>
        <path id="Trazado_3734" data-name="Trazado 3734" d="M150.577,140.526l4.363-2.823,1.813-1.043a3.818,3.818,0,0,0,1.909,1.893l-3.641,1.492-3.978,2.55L147,147.52Z" transform="translate(-2.667 -11.194)" fill="#aebddc"/>
        <path id="Trazado_3735" data-name="Trazado 3735" d="M166.579,193.138,134,192.432l-13.555-45.38s-6.208-27.27,5.39-27.783c16.827-.658,38.915-.353,38.915-.353S176.107,128.718,166.579,193.138Z" transform="translate(-21.903 -22.173)" fill="#cfd9e8"/>
        <path id="Trazado_3736" data-name="Trazado 3736" d="M143.507,190.186l3.834.561a201.2,201.2,0,0,0-6.513-71.077l-3.208,1.043A196.31,196.31,0,0,1,143.507,190.186Z" transform="translate(-9.203 -21.667)" fill="#aebddc"/>
        <path id="Trazado_3737" data-name="Trazado 3737" d="M187.805,254.519s-3.208,4.893-4.812,1.893c-4.812-8.983-9.24-37.375-9.512-49.021-.369-15.528-1.091-25.008-1.091-25.008l15.64-5.662Z" transform="translate(15.056 16.828)" fill="#163f59"/>
        <path id="Trazado_3738" data-name="Trazado 3738" d="M154.357,165.026l55.133,18.88-14.437,8.02s-56.881,9.977-57.892-11.132C136.3,163,154.357,165.026,154.357,165.026Z" transform="translate(-8.732 7.752)" fill="#163f59"/>
        <path id="Trazado_3739" data-name="Trazado 3739" d="M176.474,254.418s-2.855,2.615-4.475-.385c-4.812-8.983-12.833-32.868-13.105-44.53a113.893,113.893,0,0,1,2.2-26.339l15.961-5.534Z" transform="translate(5.66 17.355)" fill="#194866"/>
        <path id="Trazado_3740" data-name="Trazado 3740" d="M143.34,165.485l52.6,19.843L181.5,193.155s-53.368,9.977-54.395-11.116S143.34,165.485,143.34,165.485Z" transform="translate(-15.883 7.851)" fill="#194866"/>
        <path id="Trazado_3741" data-name="Trazado 3741" d="M126.52,183.557a15.848,15.848,0,0,0,2.326,8.261c4.973,6.015,16.763,3.994,26.163,3.994.529,0,3.208-7.331,3.208-7.331l3.93-23.981-32.964.561a159.911,159.911,0,0,0-2.663,18.5Z" transform="translate(-16.654 7.494)" fill="#194866"/>
        <path id="Trazado_3742" data-name="Trazado 3742" d="M159.9,156.61l12.079-2.166s1.877-.209,1.957,1.091c.112,1.716-.192,7.315-.192,7.315l-2.166-1.347-3.112,1.861-3.609-4.812a9.368,9.368,0,0,1-3.417,0C160.927,158.551,159.9,156.61,159.9,156.61Z" transform="translate(6.339 0.468)" fill="#ffc4ad"/>
        <path id="Trazado_3743" data-name="Trazado 3743" d="M144.545,153.66l31.954,3.545s-17.132,8.742-24.992,8.807a69.78,69.78,0,0,1-15.207-1.748Z" transform="translate(-9.758 0.012)" fill="#ffc4ad"/>
        <path id="Trazado_3744" data-name="Trazado 3744" d="M140.534,141.368l15.961,30.221-.914,2.454,2.454.449-7.459,11.87-11.694-2.679-21.046-41.706s-4.427-12.592,5.614-22.2C128.455,115,139.122,138.946,140.534,141.368Z" transform="translate(-28.636 -22.071)" fill="#aebddc"/>
        <path id="Trazado_3745" data-name="Trazado 3745" d="M134.14,161.635s7.571-5.791,11.405-8.935l-.4,1.075,2.454.449-2.615,4.074-4.524,5.277-2.6-.946.995-1.861Z" transform="translate(-11.588 -0.642)" fill="#cfd9e8"/>
        <path id="Trazado_3746" data-name="Trazado 3746" d="M149.016,107.486a3.962,3.962,0,0,1-3.962,3.946H130.136a3.946,3.946,0,0,1-3.946-3.946h0a3.946,3.946,0,0,1,3.946-3.946h15a3.962,3.962,0,0,1,3.962,3.946Z" transform="translate(-17.021 -33.002)" fill="#163f59"/>
        <path id="Trazado_3747" data-name="Trazado 3747" d="M147.137,112.979a7.3,7.3,0,0,1-7.3,7.3h-7.78a7.3,7.3,0,0,1-7.3-7.3h0a7.3,7.3,0,0,1,7.3-7.3h7.78A7.3,7.3,0,0,1,147.137,112.979Z" transform="translate(-18.023 -31.547)" fill="#163f59"/>
        <path id="Trazado_3748" data-name="Trazado 3748" d="M148.637,126.71V103.9c0-3.641-2.936,0-6.577,0h-3.513a6.561,6.561,0,0,0-6.577,6.577V126.71Z" transform="translate(-13.062 -33.715)" fill="#ffc4ad"/>
        <path id="Trazado_3749" data-name="Trazado 3749" d="M135.955,111.663a2.9,2.9,0,0,1-2.887,2.887h0a2.887,2.887,0,0,1-2.887-2.887h0a2.887,2.887,0,0,1,2.887-2.9h0A2.9,2.9,0,0,1,135.955,111.663Z" transform="translate(-20.592 -29.587)" fill="#ffc4ad"/>
        <path id="Trazado_3750" data-name="Trazado 3750" d="M141.2,116.312a1.6,1.6,0,0,0,1.6,1.6h1.315a1.6,1.6,0,0,0,1.6-1.6s-2.968-8.662-3.866-8.662a2.775,2.775,0,0,0-.722,1.6Z" transform="translate(-6.828 -30.283)" fill="#ffc4ad"/>
        <path id="Trazado_3751" data-name="Trazado 3751" d="M140.094,118.371c-6.593,0-7.267-2.021-7.459-4.331a47.484,47.484,0,0,0-1.765,7.635v2.085c0,4.01,4.139,7.267,9.224,7.267H149.3V118.371Z" transform="translate(-13.808 -26.021)" fill="#163f59"/>
        <path id="Trazado_3752" data-name="Trazado 3752" d="M146,114.09h-5.261a4.4,4.4,0,0,0-4.4,4.4,4.074,4.074,0,0,0,.16,1.091H146Z" transform="translate(-10.102 -26.087)" fill="#163f59"/>
        <path id="Trazado_3753" data-name="Trazado 3753" d="M138.12,117v1.46a.738.738,0,0,0,.738.722h4.267a.722.722,0,0,0,.722-.722V117Z" transform="translate(-8.911 -24.205)" fill="#ffc4ad"/>
        <path id="Trazado_3754" data-name="Trazado 3754" d="M147.077,100.76H133.571a2.631,2.631,0,0,0-2.631,2.631v5.261h16.137Z" transform="translate(-13.785 -34.83)" fill="#163f59"/>
        <path id="Trazado_3755" data-name="Trazado 3755" d="M152.588,104.708a3.978,3.978,0,0,1-3.978,3.978H139.5a3.978,3.978,0,0,1-3.978-3.978h0a3.978,3.978,0,0,1,3.978-3.978h9.127a3.978,3.978,0,0,1,3.978,3.978Z" transform="translate(-10.586 -34.849)" fill="#163f59"/>
        <rect id="Rectángulo_1643" data-name="Rectángulo 1643" width="3.641" height="9.609" transform="translate(112.299 72.141)" fill="#163f59"/>
        <rect id="Rectángulo_1644" data-name="Rectángulo 1644" width="10.731" height="11.309" transform="translate(119.86 67.875)" fill="#163f59"/>
        <path id="Trazado_3756" data-name="Trazado 3756" d="M134.14,111.118a5.438,5.438,0,0,1,5.438-5.438h2.807c3,0,4.6,2.438,4.6,5.438h0a5.422,5.422,0,0,1-5.438,5.422h-1.973a5.422,5.422,0,0,1-5.438-5.422Z" transform="translate(-11.595 -31.574)" fill="#ffc4ad"/>
        <path id="Trazado_3757" data-name="Trazado 3757" d="M175.81,146.97s-2.6-6.224-1.6-7.908,4.732-7.6,4.732-7.6l1.123-1.428s2.262.337-.337,4.3-.273,2.711-.273,2.711l3.738-2.695L188,131.379l1.989-1.6s1.059-.979,1.508-.995c1.3,0,.866.946.866.946l-7.122,6.817,8.341-4.507s1.155-.4,1.6.1,0,.674,0,.674l-8.341,7.267,4.556-1.845s1.155-.353,1.6.1.61.626.61.626L176.9,148.382Z" transform="translate(16.265 -16.279)" fill="#ffc4ad"/>
        <path id="Trazado_3758" data-name="Trazado 3758" d="M181.78,135.711l6.047-2.823a5.534,5.534,0,0,1,2.1-.786.882.882,0,0,1,.962.818l-8.758,5.149Z" transform="translate(21.468 -14.251)" fill="#ffc4ad"/>
        <path id="Trazado_3759" data-name="Trazado 3759" d="M176.793,230.723a3.609,3.609,0,0,1,0,1.684,24.058,24.058,0,0,1-6.513.321,7.281,7.281,0,0,1-1.748-1.091c-.1-.1-.289-.593-.4-.69s-.3.112-.465,0a8.937,8.937,0,0,1-.754-.69,8.486,8.486,0,0,1,.193-4.315s4.2-1.957,4.973-.642C173.986,228.3,176.216,229.713,176.793,230.723Z" transform="translate(11.02 46.743)" fill="#194866"/>
        <path id="Trazado_3760" data-name="Trazado 3760" d="M178.73,226.847l.69,4.459h3.738s.209-.626.513-.626.61.626.979.626h9.48a2.883,2.883,0,0,0,0-1.251,3.1,3.1,0,0,0-1.139-.594c-1.941-.674-7.764-2.1-9.063-4.171C182.885,223.687,178.73,226.847,178.73,226.847Z" transform="translate(19.465 46.697)" fill="#163f59"/>
        <path id="Trazado_3761" data-name="Trazado 3761" d="M160.19,160.484h0v-1.6h64.757v1.6l-.176.289a4.267,4.267,0,0,1-4.026,1.6H164.393a4.283,4.283,0,0,1-4.042-1.6Z" transform="translate(7.401 3.309)" fill="#b4c0c7"/>
        <path id="Trazado_3762" data-name="Trazado 3762" d="M175.568,160.483h0l-.16.241a2.615,2.615,0,0,1-.946.786h-9.849a4.491,4.491,0,0,1-3.882-1.283l-.16-.241h0V159.2h15.014Z" transform="translate(6.82 3.501)" fill="#d6e3eb"/>
        <rect id="Rectángulo_1645" data-name="Rectángulo 1645" width="32.355" height="1.107" transform="translate(192.792 162.5)" fill="#8599a4"/>
        <path id="Trazado_3763" data-name="Trazado 3763" d="M170.14,171.4l8.405-31.825a2.1,2.1,0,0,1,1.909-1.524h45.428a1.139,1.139,0,0,1,1.123,1.524L218.616,171.4Z" transform="translate(14.252 -9.977)" fill="#d7dfe2"/>
        <path id="Trazado_3764" data-name="Trazado 3764" d="M186.211,149.563a2.182,2.182,0,0,0,2.166,2.936,4.074,4.074,0,0,0,3.705-2.936,2.182,2.182,0,0,0-2.165-2.951A4.058,4.058,0,0,0,186.211,149.563Z" transform="translate(24.396 -4.718)" fill="#b4c0c7"/>
        <path id="Trazado_3765" data-name="Trazado 3765" d="M314.027,215.613a8.919,8.919,0,0,0,5.9-2.133c2.952-2.583,4.235-7.154,3.818-13.619a48.12,48.12,0,0,0-3.834-13.458c-3.064-7.86-6.529-16.779-4.716-28.553l-3.369-.529c-1.941,12.688,1.861,22.457,4.908,30.317,1.8,4.62,3.353,8.614,3.609,12.448.337,5.245-.561,8.967-2.631,10.8a5.663,5.663,0,0,1-4.507,1.267l-.674,3.336a7.426,7.426,0,0,0,1.492.128Z" transform="translate(111.603 3.266)" fill="#367082"/>
        <path id="Trazado_3766" data-name="Trazado 3766" d="M297.951,210.51l-3.321,5.053,27.863,8.935s1.861-1.781-4.973-5.358C309.564,214.969,297.951,210.51,297.951,210.51Z" transform="translate(100.594 37.465)" fill="#88bdda"/>
        <path id="Trazado_3767" data-name="Trazado 3767" d="M302.94,210.51l3.32,5.053L278.4,224.5s-1.861-1.781,4.973-5.358C291.326,214.969,302.94,210.51,302.94,210.51Z" transform="translate(89.103 37.465)" fill="#88bdda"/>
        <rect id="Rectángulo_1646" data-name="Rectángulo 1646" width="5.823" height="20.741" transform="translate(392.213 232.563)" fill="#88bdda"/>
        <path id="Trazado_3768" data-name="Trazado 3768" d="M298,211.17l-2.839,4.812,23.8,8.55s1.6-1.7-4.251-5.117A182.116,182.116,0,0,0,298,211.17Z" transform="translate(100.807 37.884)" fill="#91e2f6"/>
        <path id="Trazado_3769" data-name="Trazado 3769" d="M301.369,211.17l2.839,4.812-23.853,8.534s-1.6-1.7,4.251-5.117C291.424,215.437,301.369,211.17,301.369,211.17Z" transform="translate(90.346 37.883)" fill="#91e2f6"/>
        <path id="Trazado_3770" data-name="Trazado 3770" d="M308.35,221.451a2.005,2.005,0,1,0,.587-1.434A2.021,2.021,0,0,0,308.35,221.451Z" transform="translate(109.229 43.083)" fill="#001f46"/>
        <path id="Trazado_3771" data-name="Trazado 3771" d="M279.53,221.451a2.021,2.021,0,1,0,2.021-2.021A2.021,2.021,0,0,0,279.53,221.451Z" transform="translate(89.224 43.084)" fill="#001f46"/>
        <path id="Trazado_3772" data-name="Trazado 3772" d="M311.4,221.451a2.021,2.021,0,1,0,2.021-2.021,2.021,2.021,0,0,0-2.021,2.021Z" transform="translate(111.346 43.084)" fill="#367082"/>
        <path id="Trazado_3773" data-name="Trazado 3773" d="M276.48,221.451a2.005,2.005,0,1,0,.587-1.434A2.021,2.021,0,0,0,276.48,221.451Z" transform="translate(87.107 43.083)" fill="#367082"/>
        <rect id="Rectángulo_1647" data-name="Rectángulo 1647" width="4.267" height="7.459" transform="translate(393.056 224.415)" fill="#367082"/>
        <path id="Trazado_3774" data-name="Trazado 3774" d="M291.88,195.489a4.155,4.155,0,0,0,4.155,4.155h2.342a4.155,4.155,0,0,0,4.155-4.155h0a4.138,4.138,0,0,0-4.155-4.139h-2.342a4.139,4.139,0,0,0-4.155,4.139Z" transform="translate(98.031 24.729)" fill="#367082"/>
        <path id="Trazado_3775" data-name="Trazado 3775" d="M275.514,195.394c-.1-.5-.144-3.561-.144-4.09,0-3.353,2.166-6.063,4.812-6.063h53.946c2.679,0,4.812,2.711,4.812,6.063a34.622,34.622,0,0,1-.16,4.09Z" transform="translate(88.489 20.75)" fill="#0d47a1"/>
        <path id="Trazado_3776" data-name="Trazado 3776" d="M339.7,193.291c0,1.027-.61,1.861-1.347,1.861H276.4c-.738,0-1.347-.834-1.347-1.861h0c0-1.027.61-1.861,1.347-1.861h61.95C339.085,191.43,339.7,192.264,339.7,193.291Z" transform="translate(88.306 24.688)" fill="#367082"/>
        <path id="Trazado_3777" data-name="Trazado 3777" d="M324.876,185.792c-1.331.1-9.785.241-11.229.257-9.256.112-17.228-1.6-17.645-3.9a78.729,78.729,0,0,1-.241-28.681c.385-2.278,8.486-4.01,17.934-3.9,1.492,0,10.122.176,11.469.273a77.558,77.558,0,0,0-.289,35.948Z" transform="translate(100.644 -2.303)" fill="#0d47a1"/>
        <path id="Trazado_3778" data-name="Trazado 3778" d="M315.817,149.764c1.027,0,1.748.5,1.6,1.091a77.783,77.783,0,0,0-.289,33.686c.128.61-.577,1.091-1.6,1.107h0c-1.027,0-1.957-.465-2.085-1.059a77.414,77.414,0,0,1,.225-33.83c.128-.61,1.091-1.075,2.133-1.059Z" transform="translate(111.607 -2.224)" fill="#367082"/>
        <path id="Trazado_3779" data-name="Trazado 3779" d="M317.577,185.71a19.807,19.807,0,0,1-2.422.16,4.812,4.812,0,0,1-4.491-3.994,77.687,77.687,0,0,1,.128-28.232,4.973,4.973,0,0,1,4.6-3.994,24.572,24.572,0,0,1,2.47.16A77.574,77.574,0,0,0,317.577,185.71Z" transform="translate(110.147 -2.252)" fill="#0d47a1"/>
        <path id="Trazado_3780" data-name="Trazado 3780" d="M294.483,156.408s0,2.358-11.5,2.374a212.9,212.9,0,0,1-28.232-2.807l26.387-2.486S291.259,153.008,294.483,156.408Z" transform="translate(73.14 -0.221)" fill="#e6b09c"/>
        <path id="Trazado_3781" data-name="Trazado 3781" d="M267.09,156.141c-5.438.176-7.684,2.968-9.817,3.882a34.749,34.749,0,0,0-4.235,2.262c1.139-2.374,2.887-2.486,3.738-3.208s.642-.4-1.3-.481c-1.091,0-2.968,1.957-4.331,3.08a4.363,4.363,0,0,1-1.925,1.059,23.494,23.494,0,0,1,3.08-3.641,28.346,28.346,0,0,1,5.358-3.93,21.815,21.815,0,0,1,7.395-.465C267.972,154.938,271,156.013,267.09,156.141Z" transform="translate(68.645 0.548)" fill="#e6b09c"/>
        <path id="Trazado_3782" data-name="Trazado 3782" d="M257.443,155a30.553,30.553,0,0,0-4.812,1.765c-.5.4-2.551,2.695-2.551,2.695a5.342,5.342,0,0,0,2.422-1.171A47.35,47.35,0,0,1,257.443,155Z" transform="translate(68.878 0.775)" fill="#e6b09c"/>
        <path id="Trazado_3783" data-name="Trazado 3783" d="M280.724,152.32s10.539.289,10.042,6.561c-.289,3.561-2.647,4.812-5.839,4.812-5.919-.289-12.656-.914-12.656-.914l-3.32-9.625Z" transform="translate(82.459 -0.885)" fill="#b0bfde"/>
        <path id="Trazado_3784" data-name="Trazado 3784" d="M278.585,166.573l9.207-32.483s1.347-4.812,3.882-3.962c3.657,1.155,2.005,5.069,1.765,7.363A74.845,74.845,0,0,1,290.5,155.5c-1.813,6.994-3.3,15.03-4.941,19.634-1.123,3.208-3.385-1.235-6.609-2.39C272.939,170.615,278.585,166.573,278.585,166.573Z" transform="translate(87.361 -15.112)" fill="#b0bfde"/>
        <path id="Trazado_3785" data-name="Trazado 3785" d="M288.919,132.042a13.394,13.394,0,1,0,10.2-15.72A13.394,13.394,0,0,0,288.919,132.042Z" transform="translate(96.358 -24.637)" fill="#282723"/>
        <path id="Trazado_3786" data-name="Trazado 3786" d="M281.919,129.482A10.074,10.074,0,0,0,293.95,137.1l1.412-5.213A10.074,10.074,0,0,0,303,119.858l-.834-3.689a10.058,10.058,0,0,0-12.031-7.635l-2.454.561a10.058,10.058,0,0,0-7.635,12.031Z" transform="translate(90.075 -29.711)" fill="#282723"/>
        <path id="Trazado_3787" data-name="Trazado 3787" d="M282.2,111.94a20.24,20.24,0,0,0,.85,2.711c2.406,6.1,7.331,10.026,11.646,9.625a30.087,30.087,0,0,0,3.112,7.3,15.111,15.111,0,0,0,4.812,4.3c1.684,4.251-15.319,18.479-16.041,18.11-1.6-.786,1.219-11.02,3.994-14.18a9.881,9.881,0,0,0,2.663-4.235c.112-3.513-1.011-4.251-2.695-5.855a8.293,8.293,0,0,0-6.416-1.444,1.139,1.139,0,0,1-.914-.176,6.833,6.833,0,0,1-.77-1.973L280.626,118A7.057,7.057,0,0,1,282.2,111.94Z" transform="translate(90.507 -27.17)" fill="#ffc4ad"/>
        <path id="Trazado_3788" data-name="Trazado 3788" d="M298.314,191.08a34.679,34.679,0,0,1-5.6,4.3c-1.6.465-6.224-1.508-6.224-1.508s1.267-20.468.8-28.569-2.39-10.459-2.165-12.961c.353-4.01-2.9-6.047-1.941-9.111s3.369-14.02,3.545-12.5c1.412,12.977,6.416,2.968,7.379,1.4C294.657,131.248,298.314,191.08,298.314,191.08Z" transform="translate(92.025 -14.455)" fill="#fec12f"/>
        <path id="Trazado_3789" data-name="Trazado 3789" d="M290.307,128.629s-5.775,4.235-5.695,6.176-2.968,7.732-1.732,16.41a120.4,120.4,0,0,1,1.6,22.874c-.289,6.32-3.208,11.79-3.3,19.57,0,6.1,1.315,6.641,1.315,6.641a5.069,5.069,0,0,0,4.957-1.091c2.262-2.069,1.861-22.939,1.508-28.184S286.987,153.38,286.6,149.8a38.032,38.032,0,0,1,.481-10.138,42.947,42.947,0,0,1,2.406-8.807c.128-.273,1.6-1.476,1.716-1.7C291.655,128.212,290.773,128.1,290.307,128.629Z" transform="translate(90.576 -15.858)" fill="#d1dbea"/>
        <path id="Trazado_3790" data-name="Trazado 3790" d="M289.165,127.2s1.187-.257.176,1.123a2.791,2.791,0,0,0-.593,1.412s-.513-.545-1.3.241a24.019,24.019,0,0,1-1.829,1.6,19.469,19.469,0,0,1,.882-2.182C287.1,128.849,289.165,127.2,289.165,127.2Z" transform="translate(93.454 -17.5)" fill="#b0bfde"/>
        <path id="Trazado_3791" data-name="Trazado 3791" d="M291.3,143.444a13.988,13.988,0,1,0,10.651-16.426A13.988,13.988,0,0,0,291.3,143.444Z" transform="translate(98.057 -17.567)" fill="#282723"/>
        <path id="Trazado_3792" data-name="Trazado 3792" d="M295.086,191.01l2.615,20.067-11.309,5.2-6.272,1.315,11.132-8.309-3.641-18.11Z" transform="translate(62.598 59.665)" fill="#ffc4ad"/>
        <path id="Trazado_3793" data-name="Trazado 3793" d="M283.293,228.156l-2.454.642-1.6-1.476-9.047,4.379-8.021,1.829a1.461,1.461,0,0,1,.176-.962c.995-1.267,6.609-4.106,6.609-4.106s.1,1.861.9,1.925a61.5,61.5,0,0,0,9.32-4.443c2.743-1.684,3.208-2.727,3.481-2.6C283.181,223.681,283.293,228.156,283.293,228.156Z" transform="translate(77.696 45.806)" fill="#161711"/>
        <path id="Trazado_3794" data-name="Trazado 3794" d="M282.82,174.405l-8.983,17.1-12.432-.61-6.176-1.732,13.731-2.23,7.491-14.613Z" transform="translate(45.557 47.147)" fill="#ffc4ad"/>
        <path id="Trazado_3795" data-name="Trazado 3795" d="M258.086,209.468l-2.47-.561-.77-2.085-11.148-.16-6.657-1.508a5.776,5.776,0,0,1,1.3-1.075,38.5,38.5,0,0,1,6.753-.9s-.561,1.46.128,1.877a57.186,57.186,0,0,0,10.218.529c3.208-.225,4.155-.914,4.283-.706C260.059,205.442,258.086,209.468,258.086,209.468Z" transform="translate(60.246 32.461)" fill="#161711"/>
        <path id="Trazado_3796" data-name="Trazado 3796" d="M325.017,162.67l-6.657,2.919-2.92,8.742-43.118-7.106s-4.4-1.347-7.186,5.582c-3.978,9.881-14.116,40.584-14.116,40.584l6.416,6.705,20.115-34.7s41.209,19.345,54.8,15.159c5.213-1.6,9.208-10.812,8.454-20.115a118.55,118.55,0,0,0-2.037-13.988Z" transform="translate(72.327 6.814)" fill="#194866"/>
        <path id="Trazado_3797" data-name="Trazado 3797" d="M311.2,193.094l-32.9-2.374,2.839,50.9-9.721.3-7.186-59.592s1.941-8.871,8.245-7.539S293.922,187.817,311.2,193.094Z" transform="translate(80.031 15.061)" fill="#163f59"/>
        <path id="Trazado_3798" data-name="Trazado 3798" d="M291.676,197.823s-.8-20.693-1.4-30.478-.481-28.761-.61-31.119a29.01,29.01,0,0,1,.513-5.695s2.984-5.085,6.3-4.652c2.935.4,7.443,4.459,10.266,6.416s2.454,36.461,2.6,38.21c.5,6.288,4.251,12.5,7.074,18.527a34.486,34.486,0,0,1,2.23,9.993S301.862,195.69,291.676,197.823Z" transform="translate(97.165 -17.491)" fill="#d1dbea"/>
        <path id="Trazado_3799" data-name="Trazado 3799" d="M311.641,103.9l-2.374,2.342L305.93,109.8l1.7,4.01,5.871-8.245Z" transform="translate(80.21 1.944)" fill="#b0bfde"/>
        <path id="Trazado_3800" data-name="Trazado 3800" d="M313.808,160.711s-.353,2.534-13.908,1.043S266.76,155,266.76,155l31.569.8S310.456,156.6,313.808,160.711Z" transform="translate(81.807 0.816)" fill="#ffc4ad"/>
        <path id="Trazado_3801" data-name="Trazado 3801" d="M281.626,157.262c-6.416-.545-9.464,2.182-12.095,2.887a46.251,46.251,0,0,0-5.293,1.861c1.6-2.39,3.721-2.294,4.812-3.032s.8-.337-1.476-.69c-1.315-.192-3.77,1.716-5.518,2.743a5.309,5.309,0,0,1-2.406.9,26.263,26.263,0,0,1,4.09-3.513,33.942,33.942,0,0,1,6.817-3.529,28.168,28.168,0,0,1,8.806.465C282.829,156.059,286.278,157.631,281.626,157.262Z" transform="translate(76.055 0.642)" fill="#ffc4ad"/>
        <path id="Trazado_3802" data-name="Trazado 3802" d="M270.168,154.92a36.7,36.7,0,0,0-5.935,1.267c-.642.353-3.353,2.567-3.353,2.567a6.976,6.976,0,0,0,3.016-.946,58.294,58.294,0,0,1,6.272-2.887Z" transform="translate(76.439 0.713)" fill="#ffc4ad"/>
        <path id="Trazado_3803" data-name="Trazado 3803" d="M297.912,170.309l1.508-32.082s1.732-6.705,4.251-8.245c2.984-1.829,7.09,1.6,7.09,1.6s2.1,5,.69,28.633c-.946,15.8-2.406,23.981-9.9,22.826-6.994-1.075-14.886-2.647-14.886-2.647l-2.807-10.779Z" transform="translate(93.077 -15.391)" fill="#b0bfde"/>
        <path id="Trazado_3804" data-name="Trazado 3804" d="M300.588,160.484h0v-1.6H234.82v1.6h0l.16.289a4.347,4.347,0,0,0,4.107,1.6h57.266a4.347,4.347,0,0,0,4.106-1.6Z" transform="translate(60.005 3.309)" fill="#d0dee6"/>
        <path id="Trazado_3805" data-name="Trazado 3805" d="M265.936,160.527h0l.176.241a2.631,2.631,0,0,0,.962.818h9.993a4.556,4.556,0,0,0,3.946-1.315l.16-.241h0v-.77H265.92Z" transform="translate(80.132 3.541)" fill="#b6c2c9"/>
        <rect id="Rectángulo_1648" data-name="Rectángulo 1648" width="32.884" height="1.123" transform="translate(302.438 162.484)" fill="#b6c2c9"/>
        <path id="Trazado_3806" data-name="Trazado 3806" d="M287.51,171.6l-8.534-32.339a2.149,2.149,0,0,0-1.957-1.6H230.854a1.155,1.155,0,0,0-1.139,1.6l8.534,32.339Z" transform="translate(56.096 -10.227)" fill="#effaff"/>
        <path id="Trazado_3807" data-name="Trazado 3807" d="M251.733,149.385a2.23,2.23,0,0,1-2.2,3,4.187,4.187,0,0,1-3.786-3,2.23,2.23,0,0,1,2.214-2.984A4.139,4.139,0,0,1,251.733,149.385Z" transform="translate(65.747 -4.855)" fill="#b6c2c9"/>
        <path id="Trazado_3808" data-name="Trazado 3808" d="M170.508,249.919h6.737L166.129,142.3H156.36Z" transform="translate(-23.525 29.495)" fill="#acd5f4"/>
        <path id="Trazado_3809" data-name="Trazado 3809" d="M156.77,147.257l13.073,33.2-3.705-35.739-.257-2.422h-8.534Z" transform="translate(-23.337 27.711)" fill="#86bbd8"/>
        <path id="Trazado_3810" data-name="Trazado 3810" d="M123.637,249.919H116.9L128.016,142.3h9.753Z" transform="translate(-54.617 29.495)" fill="#acd5f4"/>
        <path id="Trazado_3811" data-name="Trazado 3811" d="M133.038,147.257l-4.283,32.6-5.085-35.13.257-2.422h8.534Z" transform="translate(-50.527 27.699)" fill="#86bbd8"/>
        <path id="Trazado_3812" data-name="Trazado 3812" d="M302.337,249.919H295.6L306.7,142.3h9.769Z" transform="translate(73.491 29.495)" fill="#acd5f4"/>
        <path id="Trazado_3813" data-name="Trazado 3813" d="M311.738,147.257l-4.283,32.6-5.085-35.13.241-2.422h8.55Z" transform="translate(77.8 27.699)" fill="#86bbd8"/>
        <path id="Trazado_3814" data-name="Trazado 3814" d="M349.208,249.919h6.737L344.829,142.3H335.06Z" transform="translate(100.985 29.495)" fill="#acd5f4"/>
        <path id="Trazado_3815" data-name="Trazado 3815" d="M335.47,147.257l13.073,33.2-3.705-35.739-.257-2.422h-8.534Z" transform="translate(100.951 27.711)" fill="#86bbd8"/>
        <rect id="Rectángulo_1649" data-name="Rectángulo 1649" width="206.88" height="6.288" transform="translate(243.737 165.827)" fill="#d3a518"/>
        <rect id="Rectángulo_1650" data-name="Rectángulo 1650" width="288.624" height="6.288" transform="translate(65.363 165.827)" fill="#d3a518"/>
        <path id="Trazado_3816" data-name="Trazado 3816" d="M150.76,118.417a3.818,3.818,0,0,0,3.818,3.818h2.551v8.9l8.9-8.9H195.29a3.818,3.818,0,0,0,3.818-3.818V86.608a3.834,3.834,0,0,0-3.818-3.818H154.578a3.834,3.834,0,0,0-3.818,3.818Z" transform="translate(0.491 -47.805)" fill="#e4efff"/>
        <path id="Trazado_3994" data-name="Trazado 3994" d="M223.047,129.881a3.818,3.818,0,0,1-3.818,3.818h-2.55v8.919l-8.9-8.919H178.518a3.818,3.818,0,0,1-3.818-3.818V98.088a3.834,3.834,0,0,1,3.818-3.818H219.23a3.834,3.834,0,0,1,3.818,3.818Z" transform="translate(17.283 -38.851)" fill="#3bb6d5"/>
        <rect id="Rectángulo_1651" data-name="Rectángulo 1651" width="33.076" height="2.551" transform="translate(199.771 64.837)" fill="#fff"/>
        <rect id="Rectángulo_1652" data-name="Rectángulo 1652" width="33.076" height="2.551" transform="translate(199.771 73.533)" fill="#fff"/>
        <rect id="Rectángulo_1653" data-name="Rectángulo 1653" width="33.076" height="2.551" transform="translate(199.771 80.093)" fill="#fff"/>
        <path id="Trazado_3995" data-name="Trazado 3995" d="M319.042,64.52H288.709a3.369,3.369,0,0,0-3.369,3.369v23.58a3.385,3.385,0,0,0,3.369,3.385H298.83l1.684,1.6,3.369,3.369,3.369-3.369,1.684-1.6h10.106a3.385,3.385,0,0,0,3.369-3.385V67.889A3.369,3.369,0,0,0,319.042,64.52Z" transform="translate(94.447 -58.842)" fill="#3dc7c9"/>
        <path id="Trazado_3996" data-name="Trazado 3996" d="M313.106,80.062V76.694H309.5a8.31,8.31,0,0,0-1.235-2.952l2.518-2.5-2.326-2.406-2.5,2.5a8.229,8.229,0,0,0-2.968-1.219v-3.5h-3.369v3.545a8.277,8.277,0,0,0-2.952,1.219l-2.5-2.551-2.31,2.438,2.518,2.5a8.021,8.021,0,0,0-1.235,2.952H289.59v3.337h3.545a7.908,7.908,0,0,0,1.235,2.952l-2.518,2.551,2.39,2.374,2.422-2.5a8.31,8.31,0,0,0,2.952,1.235V90.2h3.369V86.671a8.261,8.261,0,0,0,2.968-1.235l2.5,2.5,2.39-2.374-2.518-2.5a8.386,8.386,0,0,0,1.171-3ZM301.3,83.431a4.989,4.989,0,1,1,0,.032Z" transform="translate(96.905 -57.573)" fill="#fff"/>
        <path id="Trazado_4057" data-name="Trazado 4057" d="M184.263,91.112c.209-8.02-4.4-14.437-13.057-14.758s-13.635,6.08-13.843,14.02c-.176,6.208,4.107,8.47,7.652,13.715.706,1.027-.128,5-.128,5l10.844.289s-.626-4.01.128-5C179.691,99.341,184.054,97.3,184.263,91.112Z" transform="translate(4.768 -51.699)" fill="#fec12f"/>
        <path id="Trazado_4058" data-name="Trazado 4058" d="M169.489,104.324c-4.908-7.25-10.828-10.395-10.6-18.944a24.784,24.784,0,0,1,.706-5.31,16.2,16.2,0,0,0-2.23,8.02c-.176,6.208,4.107,8.47,7.652,13.715.706,1.027-.128,5-.128,5l4.973.128a5.085,5.085,0,0,0-.369-2.615Z" transform="translate(4.547 -49.448)" fill="#ffab01"/>
        <path id="Trazado_4059" data-name="Trazado 4059" d="M161.931,96.76v1.492a4.475,4.475,0,0,0,4.363,4.6h2.23a4.508,4.508,0,0,0,4.62-4.363V97Z" transform="translate(7.706 -39.366)" fill="#3d7aa8"/>
        <path id="Trazado_4060" data-name="Trazado 4060" d="M178.26,64.812l1.764-2.182,1.668,2.278,1.765-2.182L185.126,65l1.781-2.2,1.652,2.294,1.781-2.2,1.668,2.294" transform="translate(-8.38 -26.41)" fill="none" stroke="#f4da80" stroke-miterlimit="10" stroke-width="1.66"/>
        <path id="Trazado_4061" data-name="Trazado 4061" d="M179.46,65.25l2.278,7.475-.257,9.416" transform="translate(-7.725 -24.827)" fill="none" stroke="#f4da80" stroke-miterlimit="10" stroke-width="1.66"/>
        <path id="Trazado_4062" data-name="Trazado 4062" d="M185.806,65.39l-2.679,7.347-.257,9.4" transform="translate(-5.348 -24.742)" fill="none" stroke="#f4da80" stroke-miterlimit="10" stroke-width="1.66"/>
        <rect id="Rectángulo_1655" data-name="Rectángulo 1655" width="1.171" height="7.01" transform="matrix(0.027, -1, 1, 0.027, 172.746, 59.418)" fill="#34688f"/>
        <rect id="Rectángulo_1656" data-name="Rectángulo 1656" width="1.171" height="5.053" transform="matrix(0.027, -1, 1, 0.027, 172.617, 61.49)" fill="#34688f"/>
        <rect id="Rectángulo_1657" data-name="Rectángulo 1657" width="1.62" height="5.582" transform="translate(325.501 60.939)" fill="#fff"/>
        <rect id="Rectángulo_1658" data-name="Rectángulo 1658" width="1.62" height="3.898" transform="translate(325.501 54.491)" fill="#fff"/>
        <rect id="Rectángulo_1659" data-name="Rectángulo 1659" width="4.844" height="1.62" transform="translate(323.883 54.347)" fill="#fff"/>
        <path id="Trazado_4063" data-name="Trazado 4063" d="M256.2,102.607a1.219,1.219,0,1,1-1.211-1.08,1.219,1.219,0,0,1,1.211,1.08Z" transform="translate(71.293 -36.486)" fill="#fff"/>
        <rect id="Rectángulo_1660" data-name="Rectángulo 1660" width="3.433" height="1.62" transform="translate(330.079 59.445) rotate(-45)" fill="#fff"/>
        <rect id="Rectángulo_1661" data-name="Rectángulo 1661" width="7.283" height="1.62" transform="translate(314.567 64.854)" fill="#fff"/>
        <rect id="Rectángulo_1662" data-name="Rectángulo 1662" width="7.283" height="1.62" transform="translate(316.261 71.142)" fill="#fff"/>
        <path id="Trazado_4064" data-name="Trazado 4064" d="M249.495,101.41a7.826,7.826,0,0,0,0,.866,7.364,7.364,0,0,0,.16,1.6h1.6a6.417,6.417,0,0,1-.193-1.6,5.249,5.249,0,0,1,0-.866Z" transform="translate(68.303 -36.557)" fill="#fff"/>
        <path id="Trazado_4065" data-name="Trazado 4065" d="M257.432,96.89a8.149,8.149,0,0,0-7.732,5.63h1.732a6.513,6.513,0,1,1,.337,5.662h-1.8a8.117,8.117,0,1,0,7.459-11.229Z" transform="translate(68.864 -37.324)" fill="#fff"/>
        <rect id="Rectángulo_1663" data-name="Rectángulo 1663" width="2.422" height="1.62" transform="translate(314.429 60.811)" fill="#fff"/>
      </g>
    </g>
    <g id="Grupo_4142" data-name="Grupo 4142" transform="translate(813.906 344.015)" opacity="0.9">
      <path id="Trazado_8119" data-name="Trazado 8119" d="M278.2,395.983a3.282,3.282,0,1,1-1.557,4.372A3.282,3.282,0,0,1,278.2,395.983Z" transform="translate(-246.014 -309.105)" fill="#fff"/>
      <path id="Trazado_8120" data-name="Trazado 8120" d="M271.359,381.581a3.282,3.282,0,1,1-1.557,4.374A3.282,3.282,0,0,1,271.359,381.581Z" transform="translate(-246.754 -310.019)" fill="#fff"/>
      <path id="Trazado_8121" data-name="Trazado 8121" d="M264.522,367.179a3.282,3.282,0,1,1-1.557,4.374A3.284,3.284,0,0,1,264.522,367.179Z" transform="translate(-247.493 -310.932)" fill="#fff"/>
      <path id="Trazado_8122" data-name="Trazado 8122" d="M257.685,352.779a3.282,3.282,0,1,1-1.557,4.372A3.282,3.282,0,0,1,257.685,352.779Z" transform="translate(-246.535 -311.846)" fill="#fff"/>
      <path id="Trazado_8123" data-name="Trazado 8123" d="M250.848,338.377a3.282,3.282,0,1,1-1.557,4.372A3.282,3.282,0,0,1,250.848,338.377Z" transform="translate(-248.973 -312.76)" fill="#fff"/>
      <path id="Trazado_8124" data-name="Trazado 8124" d="M290.725,390.036a3.282,3.282,0,1,1-1.559,4.372A3.282,3.282,0,0,1,290.725,390.036Z" transform="translate(-244.659 -311.226)" fill="#fff"/>
      <path id="Trazado_8125" data-name="Trazado 8125" d="M283.887,375.633a3.283,3.283,0,1,1-1.557,4.374A3.284,3.284,0,0,1,283.887,375.633Z" transform="translate(-245.399 -310.396)" fill="#fff"/>
      <path id="Trazado_8126" data-name="Trazado 8126" d="M277.05,361.233a3.282,3.282,0,1,1-1.557,4.372A3.284,3.284,0,0,1,277.05,361.233Z" transform="translate(-246.138 -311.31)" fill="#fff"/>
      <path id="Trazado_8127" data-name="Trazado 8127" d="M270.213,346.831a3.283,3.283,0,1,1-1.557,4.372A3.281,3.281,0,0,1,270.213,346.831Z" transform="translate(-246.878 -312.223)" fill="#fff"/>
      <path id="Trazado_8128" data-name="Trazado 8128" d="M263.376,332.429a3.282,3.282,0,1,1-1.557,4.372A3.282,3.282,0,0,1,263.376,332.429Z" transform="translate(-247.618 -313.137)" fill="#fff"/>
      <path id="Trazado_8129" data-name="Trazado 8129" d="M303.253,384.088a3.282,3.282,0,1,1-1.557,4.374A3.282,3.282,0,0,1,303.253,384.088Z" transform="translate(-243.304 -313.347)" fill="#fff"/>
      <path id="Trazado_8130" data-name="Trazado 8130" d="M296.416,369.687a3.282,3.282,0,1,1-1.557,4.372A3.282,3.282,0,0,1,296.416,369.687Z" transform="translate(-244.043 -310.773)" fill="#fff"/>
      <path id="Trazado_8131" data-name="Trazado 8131" d="M289.578,355.285a3.283,3.283,0,1,1-1.556,4.372A3.283,3.283,0,0,1,289.578,355.285Z" transform="translate(-244.783 -311.687)" fill="#fff"/>
      <path id="Trazado_8132" data-name="Trazado 8132" d="M282.742,340.884a3.282,3.282,0,1,1-1.557,4.372A3.282,3.282,0,0,1,282.742,340.884Z" transform="translate(-245.523 -312.6)" fill="#fff"/>
      <path id="Trazado_8133" data-name="Trazado 8133" d="M275.9,326.482a3.282,3.282,0,1,1-1.557,4.372A3.283,3.283,0,0,1,275.9,326.482Z" transform="translate(-246.262 -310.027)" fill="#fff"/>
      <path id="Trazado_8134" data-name="Trazado 8134" d="M315.781,378.141a3.282,3.282,0,1,1-1.557,4.372A3.282,3.282,0,0,1,315.781,378.141Z" transform="translate(-241.949 -310.237)" fill="#fff"/>
      <path id="Trazado_8135" data-name="Trazado 8135" d="M308.944,363.738a3.282,3.282,0,1,1-1.557,4.372A3.282,3.282,0,0,1,308.944,363.738Z" transform="translate(-242.688 -311.151)" fill="#fff"/>
      <path id="Trazado_8136" data-name="Trazado 8136" d="M302.107,349.338a3.282,3.282,0,1,1-1.557,4.372A3.28,3.28,0,0,1,302.107,349.338Z" transform="translate(-243.428 -312.064)" fill="#fff"/>
      <path id="Trazado_8137" data-name="Trazado 8137" d="M295.27,334.936a3.282,3.282,0,1,1-1.557,4.372A3.282,3.282,0,0,1,295.27,334.936Z" transform="translate(-244.167 -312.978)" fill="#fff"/>
      <path id="Trazado_8138" data-name="Trazado 8138" d="M288.433,320.534a3.282,3.282,0,1,1-1.557,4.374A3.282,3.282,0,0,1,288.433,320.534Z" transform="translate(-244.907 -312.148)" fill="#fff"/>
      <path id="Trazado_8139" data-name="Trazado 8139" d="M328.309,372.192a3.282,3.282,0,1,1-1.557,4.372A3.283,3.283,0,0,1,328.309,372.192Z" transform="translate(-240.594 -310.614)" fill="#fff"/>
      <path id="Trazado_8140" data-name="Trazado 8140" d="M321.472,357.792a3.282,3.282,0,1,1-1.557,4.372A3.28,3.28,0,0,1,321.472,357.792Z" transform="translate(-243.031 -311.528)" fill="#fff"/>
      <path id="Trazado_8141" data-name="Trazado 8141" d="M314.635,343.39a3.282,3.282,0,1,1-1.557,4.372A3.282,3.282,0,0,1,314.635,343.39Z" transform="translate(-242.073 -312.441)" fill="#fff"/>
      <path id="Trazado_8142" data-name="Trazado 8142" d="M307.8,328.987a3.282,3.282,0,1,1-1.557,4.374A3.282,3.282,0,0,1,307.8,328.987Z" transform="translate(-242.812 -313.355)" fill="#fff"/>
      <path id="Trazado_8143" data-name="Trazado 8143" d="M300.961,314.587a3.282,3.282,0,1,1-1.557,4.372A3.282,3.282,0,0,1,300.961,314.587Z" transform="translate(-243.552 -314.269)" fill="#fff"/>
    </g>
  </g>
</svg>
