<svg xmlns="http://www.w3.org/2000/svg" width="920" height="595" viewBox="0 0 920 595">
  <g id="Grupo_10154" data-name="Grupo 10154" transform="translate(-110 -1425)">
    <rect id="Rectángulo_2599" data-name="Rectángulo 2599" width="163" height="347" rx="20" transform="translate(115 1673)" fill="#ffecb3"/>
    <rect id="Rectángulo_2600" data-name="Rectángulo 2600" width="168" height="347" rx="20" transform="translate(298 1673)" fill="#ffecb3"/>
    <rect id="Rectángulo_2601" data-name="Rectángulo 2601" width="168" height="347" rx="20" transform="translate(486 1673)" fill="#ffecb3"/>
    <rect id="Rectángulo_2602" data-name="Rectángulo 2602" width="168" height="347" rx="20" transform="translate(674 1673)" fill="#ffecb3"/>
    <rect id="Rectángulo_2603" data-name="Rectángulo 2603" width="168" height="347" rx="20" transform="translate(862 1673)" fill="#ffecb3"/>
    <g id="Grupo_5128" data-name="Grupo 5128" transform="translate(877.63 1516.079)">
      <rect id="Rectángulo_2590" data-name="Rectángulo 2590" width="4.044" height="24.227" transform="translate(32.354 4.297)"/>
      <rect id="Rectángulo_2591" data-name="Rectángulo 2591" width="4.044" height="92.657" transform="translate(32.354 8.341) rotate(-90)"/>
      <g id="Grupo_5114" data-name="Grupo 5114" transform="translate(2.022 22.243)">
        <path id="Trazado_9057" data-name="Trazado 9057" d="M1388.75,106.079v28.309h-44.486V106.079Z" transform="translate(-1344.264 -106.079)" fill="#b4dd7f"/>
      </g>
      <g id="Grupo_5115" data-name="Grupo 5115" transform="translate(34.376 105.402)">
        <path id="Trazado_9058" data-name="Trazado 9058" d="M1561.236,435.079V455.3a2.028,2.028,0,0,1-2.022,2.022h-84.928a2.028,2.028,0,0,1-2.022-2.022v-6.066h63.615a4.254,4.254,0,0,0,1.132-.162,3.624,3.624,0,0,0,.91-.384Z" transform="translate(-1472.264 -435.079)" fill="#ffeaa7"/>
      </g>
      <g id="Grupo_5116" data-name="Grupo 5116" transform="translate(99.123 103.379)">
        <path id="Trazado_9059" data-name="Trazado 9059" d="M1752.649,429.1l-23.315,13.609a3.622,3.622,0,0,1-.91.384l8.048-16.015a19.157,19.157,0,0,0,8.574,2.022Z" transform="translate(-1728.424 -427.079)" fill="#b4dd7f"/>
      </g>
      <g id="Grupo_5117" data-name="Grupo 5117" transform="translate(42.464 79.114)">
        <path id="Trazado_9060" data-name="Trazado 9060" d="M1555.221,331.221a8.277,8.277,0,0,1,2.346,14.478l-2.629,1.982a5.315,5.315,0,0,0-2.143,4.267,7.456,7.456,0,0,1-7.441,7.441h-2.467a5.339,5.339,0,0,0-3.781,1.557,8.46,8.46,0,0,1-10.677,1.072l-2.265-1.517a6.712,6.712,0,0,0-7.4,0l-2.426,1.638a7.759,7.759,0,0,1-12.072-6.471v-.121a7.233,7.233,0,0,1,1.233-4.064l1.86-2.811a5.537,5.537,0,0,0,.95-3.114,5.647,5.647,0,0,0-1.658-4l-.708-.708a5.737,5.737,0,0,1-1.678-4.064V336.7a5.609,5.609,0,0,1,5.621-5.621h8.068a12.765,12.765,0,0,0-1.557,6.066c0,7.826,7.239,14.155,16.177,14.155s16.177-6.329,16.177-14.155a12.764,12.764,0,0,0-1.557-6.066h7.623Z" transform="translate(-1504.264 -331.079)" fill="#ffc729"/>
      </g>
      <g id="Grupo_5118" data-name="Grupo 5118" transform="translate(54.597 77.092)">
        <path id="Trazado_9061" data-name="Trazado 9061" d="M1555.155,323.079h26.57a13.446,13.446,0,0,1,1.335,2.022,12.764,12.764,0,0,1,1.557,6.066c0,7.825-7.239,14.155-16.177,14.155s-16.177-6.329-16.177-14.155a12.766,12.766,0,0,1,1.557-6.066A13.464,13.464,0,0,1,1555.155,323.079Z" transform="translate(-1552.264 -323.079)" fill="#fcd770"/>
      </g>
      <g id="Grupo_5119" data-name="Grupo 5119" transform="translate(58.641 2.022)">
        <path id="Trazado_9062" data-name="Trazado 9062" d="M1591.579,30.73a5.536,5.536,0,0,1,.95,3.114,5.647,5.647,0,0,1-1.658,4l-.364.364h-14.842a26.659,26.659,0,0,0-4.934.445l-.809-.809a5.647,5.647,0,0,1-1.658-4,5.535,5.535,0,0,1,.95-3.114l1.9-2.851a4,4,0,0,1,3.357-1.8h11.849a4,4,0,0,1,3.357,1.8Z" transform="translate(-1568.264 -26.079)" fill="#b27946"/>
      </g>
      <g id="Grupo_5120" data-name="Grupo 5120" transform="translate(62.685 22.243)">
        <path id="Trazado_9063" data-name="Trazado 9063" d="M1600.441,110.123a4.056,4.056,0,0,0,4.044,4.044,4.074,4.074,0,0,0-4.044,4.044,4.056,4.056,0,0,0,4.044,4.044,4.074,4.074,0,0,0-4.044,4.044,4.056,4.056,0,0,0,4.044,4.044,4.074,4.074,0,0,0-4.044,4.044,4.056,4.056,0,0,0,4.044,4.044h-20.221V112.064a9.881,9.881,0,0,0,2.71-3.316,4.83,4.83,0,0,1,4.307-2.669h7.138l2.71,1.779A3.991,3.991,0,0,0,1600.441,110.123Z" transform="translate(-1584.264 -106.079)" fill="#cf9e76"/>
      </g>
      <g id="Grupo_5121" data-name="Grupo 5121" transform="translate(50.552 54.596)">
        <path id="Trazado_9064" data-name="Trazado 9064" d="M1576.706,242.167v2.022a2.028,2.028,0,0,1-2.022,2.022h-36.4a2.028,2.028,0,0,1-2.022-2.022v-2.022a8.086,8.086,0,0,1,8.088-8.088h24.265A8.086,8.086,0,0,1,1576.706,242.167Z" transform="translate(-1536.264 -234.079)" fill="#aab2bd"/>
      </g>
      <g id="Grupo_5122" data-name="Grupo 5122" transform="translate(78.862 30.331)">
        <path id="Trazado_9065" data-name="Trazado 9065" d="M1664.441,138.079a4.056,4.056,0,0,1,4.044,4.044,4.074,4.074,0,0,1-4.044,4.044h-12.133a4.056,4.056,0,0,1-4.044-4.044,4.074,4.074,0,0,1,4.044-4.044Z" transform="translate(-1648.264 -138.079)" fill="#f0d0b4"/>
      </g>
      <g id="Grupo_5123" data-name="Grupo 5123" transform="translate(78.862 46.508)">
        <path id="Trazado_9066" data-name="Trazado 9066" d="M1663.248,203.272a3.953,3.953,0,0,1,1.193,2.851,4.056,4.056,0,0,1-4.044,4.044h-8.088a4.056,4.056,0,0,1-4.044-4.044,4.074,4.074,0,0,1,4.044-4.044h8.088A3.953,3.953,0,0,1,1663.248,203.272Z" transform="translate(-1648.264 -202.079)" fill="#f0d0b4"/>
      </g>
      <g id="Grupo_5124" data-name="Grupo 5124" transform="translate(78.862 38.42)">
        <path id="Trazado_9067" data-name="Trazado 9067" d="M1664.441,170.079a4.056,4.056,0,0,1,4.044,4.044,4.074,4.074,0,0,1-4.044,4.044h-12.133a4.056,4.056,0,0,1-4.044-4.044,4.074,4.074,0,0,1,4.044-4.044Z" transform="translate(-1648.264 -170.079)" fill="#f0d0b4"/>
      </g>
      <g id="Grupo_5125" data-name="Grupo 5125" transform="translate(78.862 22.243)">
        <path id="Trazado_9068" data-name="Trazado 9068" d="M1652.308,106.079h12.133a4.056,4.056,0,0,1,4.044,4.044,4.074,4.074,0,0,1-4.044,4.044h-12.133a4.056,4.056,0,0,1-4.044-4.044,3.991,3.991,0,0,1,.688-2.265,4.58,4.58,0,0,1,.506-.586A3.953,3.953,0,0,1,1652.308,106.079Z" transform="translate(-1648.264 -106.079)" fill="#f0d0b4"/>
      </g>
      <g id="Grupo_5126" data-name="Grupo 5126" transform="translate(46.508 14.155)">
        <path id="Trazado_9069" data-name="Trazado 9069" d="M1536.441,88.153v26.368a34.237,34.237,0,0,1-15.327-3.62l-.849-.425V82.167a27.545,27.545,0,0,1,14.6-7.644,26.657,26.657,0,0,1,4.934-.445h14.842a2.028,2.028,0,0,1,2.022,2.022,6.058,6.058,0,0,1-6.066,6.066h-7.138a4.83,4.83,0,0,0-4.307,2.669A9.881,9.881,0,0,1,1536.441,88.153Z" transform="translate(-1520.264 -74.079)" fill="#f0d0b4"/>
      </g>
      <g id="Grupo_5127" data-name="Grupo 5127" transform="translate(0 0)">
        <path id="Trazado_9070" data-name="Trazado 9070" d="M1457.59,22.376v99.083H1452a17.2,17.2,0,0,1-7.662-1.81l-1.806-.9-8.467,16.866h-61.4V70.653h9.633l.427.212a36.022,36.022,0,0,0,5.652,2.245,10.05,10.05,0,0,0-3.579,7.654v2.022a4.048,4.048,0,0,0,4.044,4.044h36.4a4.048,4.048,0,0,0,4.044-4.044V80.764a10.07,10.07,0,0,0-2.026-6.066h0a6.047,6.047,0,0,0,5.621-8.323,6.013,6.013,0,0,0,2.912-9.876,5.973,5.973,0,0,0,0-8.088A6.04,6.04,0,0,0,1431.3,38.3h-11.235a8.006,8.006,0,0,0,1.124-4.044,4.01,4.01,0,0,0-1.009-2.645,7.549,7.549,0,0,0-.277-7.985l-1.9-2.845a6.058,6.058,0,0,0-5.047-2.7h-11.849a6.058,6.058,0,0,0-5.047,2.7l-1.9,2.845a7.537,7.537,0,0,0-.364,7.823,29.407,29.407,0,0,0-11.854,6.851h-45.687V70.653h32.354V143.7a4.048,4.048,0,0,0,4.044,4.044h84.928a4.048,4.048,0,0,0,4.044-4.044V22.376Zm-55.29,11.88h14.848A4.048,4.048,0,0,1,1413.1,38.3h-7.134a6.8,6.8,0,0,0-6.117,3.781,7.748,7.748,0,0,1-6.97,4.307v4.044a11.856,11.856,0,0,0,4.044-.732V70.536a32.344,32.344,0,0,1-12.133-3.173V41.214a25.4,25.4,0,0,1,17.505-6.958Zm31.025,18.2a2.025,2.025,0,0,1-2.022,2.022H1419.17a2.022,2.022,0,0,1,0-4.044H1431.3A2.025,2.025,0,0,1,1433.324,52.455Zm-18.644-4.044a5.974,5.974,0,0,0,0,8.088,5.974,5.974,0,0,0,0,8.088,5.88,5.88,0,0,0-1.205,6.066h-12.5V47.213a11.815,11.815,0,0,0,2.5-3.324,2.777,2.777,0,0,1,2.5-1.545h7.134c.131,0,.255-.032.384-.038a5.891,5.891,0,0,0,1.193,6.1Zm10.555,34.376h-36.4V80.764A6.074,6.074,0,0,1,1394.9,74.7h24.265a6.074,6.074,0,0,1,6.066,6.066Zm2.022-12.133h-8.088a2.022,2.022,0,1,1,0-4.044h8.088a2.022,2.022,0,1,1,0,4.044Zm4.044-8.088H1419.17a2.022,2.022,0,1,1,0-4.044H1431.3a2.022,2.022,0,1,1,0,4.044Zm2.022-18.2a2.025,2.025,0,0,1-2.022,2.022H1419.17a2.022,2.022,0,1,1,0-4.044H1431.3A2.025,2.025,0,0,1,1433.324,44.366Zm-35.338-13.932a3.622,3.622,0,0,1-.453-4.566l1.9-2.845a2.022,2.022,0,0,1,1.682-.9h11.848a2.022,2.022,0,0,1,1.682.9l1.9,2.845a3.617,3.617,0,0,1,.607,2.008,3.567,3.567,0,0,1-.878,2.336H1402.3a29.952,29.952,0,0,0-4.208.328Zm-57.678,11.91h40.442V66.609h-40.442Zm104.071,81.739A21.32,21.32,0,0,0,1452,125.5h.131l-11.971,6.984ZM1372.662,143.7v-4.044h61.591a6.076,6.076,0,0,0,3.057-.827L1457.59,127v16.7Z" transform="translate(-1336.264 -18.079)"/>
        <path id="Trazado_9071" data-name="Trazado 9071" d="M1547.6,318.087a14.9,14.9,0,0,0-3.341,9.35c0,8.919,8.165,16.177,18.2,16.177s18.2-7.257,18.2-16.177a14.9,14.9,0,0,0-3.341-9.35l-3.162,2.52a10.894,10.894,0,0,1,2.459,6.831c0,6.691-6.349,12.133-14.155,12.133s-14.155-5.441-14.155-12.133a10.885,10.885,0,0,1,2.459-6.829Z" transform="translate(-1491.689 -242.257)"/>
        <path id="Trazado_9072" data-name="Trazado 9072" d="M1497.835,344.374a9.437,9.437,0,0,0-1.571,5.32,9.783,9.783,0,0,0,9.781,9.783h0a9.747,9.747,0,0,0,5.425-1.644l2.428-1.62a4.732,4.732,0,0,1,5.167,0l2.252,1.5a10.482,10.482,0,0,0,13.229-1.31,3.347,3.347,0,0,1,2.35-.973h2.481a9.471,9.471,0,0,0,9.459-9.459,3.342,3.342,0,0,1,1.33-2.661l2.637-1.978a10.3,10.3,0,0,0-2.924-18.017l-.4-.133-1.28,3.836.4.133a6.261,6.261,0,0,1,1.777,10.948l-2.637,1.978a7.406,7.406,0,0,0-2.948,5.894,5.42,5.42,0,0,1-5.415,5.415H1536.9a7.427,7.427,0,0,0-5.211,2.158,6.6,6.6,0,0,1-8.125.8l-2.253-1.5a8.841,8.841,0,0,0-9.651,0l-2.429,1.62a5.718,5.718,0,0,1-3.183.965h0a5.7,5.7,0,0,1-4.056-1.68,5.787,5.787,0,0,1-1.68-4.192,5.277,5.277,0,0,1,.892-2.942l1.867-2.8a7.663,7.663,0,0,0-.959-9.668l-.716-.716a3.753,3.753,0,0,1-1.084-2.724,3.59,3.59,0,0,1,3.591-3.589h2.475v-4.044H1503.9a7.637,7.637,0,0,0-7.635,7.724,7.707,7.707,0,0,0,2.269,5.492l.716.716a3.618,3.618,0,0,1,.453,4.564Z" transform="translate(-1455.822 -245.987)"/>
        <path id="Trazado_9073" data-name="Trazado 9073" d="M1576.264,339.079h16.177v4.044h-16.177Z" transform="translate(-1515.601 -257.943)"/>
        <path id="Trazado_9074" data-name="Trazado 9074" d="M1608.264,371.079h8.088v4.044h-8.088Z" transform="translate(-1539.512 -281.854)"/>
        <path id="Trazado_9075" data-name="Trazado 9075" d="M1736.264,243.079h16.177v4.044h-16.177Z" transform="translate(-1635.159 -186.208)"/>
        <path id="Trazado_9076" data-name="Trazado 9076" d="M1752.264,211.079H1764.4v4.044h-12.133Z" transform="translate(-1647.115 -162.296)"/>
        <path id="Trazado_9077" data-name="Trazado 9077" d="M1752.264,179.079H1764.4v4.044h-12.133Z" transform="translate(-1647.115 -138.384)"/>
        <path id="Trazado_9078" data-name="Trazado 9078" d="M1752.264,147.079H1764.4v4.044h-12.133Z" transform="translate(-1647.115 -114.473)"/>
        <path id="Trazado_9079" data-name="Trazado 9079" d="M1752.264,115.079H1764.4v4.044h-12.133Z" transform="translate(-1647.115 -90.561)"/>
        <path id="Trazado_9080" data-name="Trazado 9080" d="M1736.264,83.079h16.177v4.044h-16.177Z" transform="translate(-1635.159 -66.65)"/>
      </g>
    </g>
    <g id="Filled_outline" data-name="Filled outline" transform="translate(698.028 1532.508)">
      <path id="Trazado_9081" data-name="Trazado 9081" d="M860.264,91.079h68.751V200.272H860.264Z" transform="translate(-833.977 -89.057)" fill="#aabece"/>
      <path id="Trazado_9082" data-name="Trazado 9082" d="M892.264,91.079h52.574v36.4H892.264Z" transform="translate(-857.888 -89.057)" fill="#f4f4e6"/>
      <path id="Trazado_9083" data-name="Trazado 9083" d="M976.485,129.145h-6.066v-6.066H962.33v6.066h-6.066v8.088h6.066V143.3h8.088v-6.066h6.066Z" transform="translate(-905.712 -112.969)" fill="#dd3e46"/>
      <path id="Trazado_9084" data-name="Trazado 9084" d="M892.264,331.079h10.11v12.133h-10.11Z" transform="translate(-857.888 -268.394)" fill="#5a6470"/>
      <path id="Trazado_9085" data-name="Trazado 9085" d="M932.264,331.079h8.088v12.133h-8.088Z" transform="translate(-887.778 -268.394)" fill="#394d5c"/>
      <path id="Trazado_9086" data-name="Trazado 9086" d="M964.264,331.079h8.088v12.133h-8.088Z" transform="translate(-911.69 -268.394)" fill="#5a6470"/>
      <path id="Trazado_9087" data-name="Trazado 9087" d="M996.264,331.079h8.088v12.133h-8.088Z" transform="translate(-935.601 -268.394)" fill="#394d5c"/>
      <path id="Trazado_9088" data-name="Trazado 9088" d="M1028.264,331.079h8.088v12.133h-8.088Z" transform="translate(-959.513 -268.394)" fill="#5a6470"/>
      <path id="Trazado_9089" data-name="Trazado 9089" d="M1060.264,331.079h8.088v12.133h-8.088Z" transform="translate(-983.425 -268.394)" fill="#394d5c"/>
      <path id="Trazado_9090" data-name="Trazado 9090" d="M932.264,379.079h32.354v28.309H932.264Z" transform="translate(-887.778 -304.262)" fill="#cdeef6"/>
      <path id="Trazado_9091" data-name="Trazado 9091" d="M932.264,491.079h32.354v8.088H932.264Z" transform="translate(-887.778 -387.952)" fill="#394d5c"/>
      <g id="Grupo_5129" data-name="Grupo 5129" transform="translate(34.376 46.508)">
        <path id="Trazado_9092" data-name="Trazado 9092" d="M892.264,379.079h10.11v36.4h-10.11Z" transform="translate(-892.264 -350.77)" fill="#7d8d9c"/>
        <path id="Trazado_9093" data-name="Trazado 9093" d="M1060.264,379.079h8.088v36.4h-8.088Z" transform="translate(-1017.8 -350.77)" fill="#7d8d9c"/>
        <path id="Trazado_9094" data-name="Trazado 9094" d="M892.264,267.079h50.552v8.088H892.264Z" transform="translate(-892.264 -267.079)" fill="#7d8d9c"/>
      </g>
      <path id="Trazado_9095" data-name="Trazado 9095" d="M764.264,219.079h24.265v76.84H764.264Z" transform="translate(-762.242 -184.703)" fill="#cfdfe8"/>
      <path id="Trazado_9096" data-name="Trazado 9096" d="M764.264,187.079h24.265v8.088H764.264Z" transform="translate(-762.242 -160.792)" fill="#7d8d9c"/>
      <path id="Trazado_9097" data-name="Trazado 9097" d="M764.264,491.079h24.265v8.088H764.264Z" transform="translate(-762.242 -387.952)" fill="#7d8d9c"/>
      <path id="Trazado_9098" data-name="Trazado 9098" d="M1156.529,295.919h-24.265v-76.84h24.265Z" transform="translate(-1037.226 -184.703)" fill="#cfdfe8"/>
      <path id="Trazado_9099" data-name="Trazado 9099" d="M1156.529,195.167h-24.265v-8.088h24.265Z" transform="translate(-1037.226 -160.792)" fill="#7d8d9c"/>
      <path id="Trazado_9100" data-name="Trazado 9100" d="M1156.529,499.167h-24.265v-8.088h24.265Z" transform="translate(-1037.226 -387.952)" fill="#7d8d9c"/>
      <g id="Grupo_5130" data-name="Grupo 5130" transform="translate(10.11 42.464)">
        <path id="Trazado_9101" data-name="Trazado 9101" d="M1164.264,251.079h8.089v8.088h-8.089Z" transform="translate(-1071.248 -251.079)" fill="#fff69a"/>
        <path id="Trazado_9102" data-name="Trazado 9102" d="M1164.264,315.079h8.089v8.088h-8.089Z" transform="translate(-1071.248 -298.902)" fill="#fff69a"/>
        <path id="Trazado_9103" data-name="Trazado 9103" d="M1164.264,379.079h8.089v8.088h-8.089Z" transform="translate(-1071.248 -346.726)" fill="#fff69a"/>
        <path id="Trazado_9104" data-name="Trazado 9104" d="M1164.264,443.079h8.089v12.133h-8.089Z" transform="translate(-1071.248 -394.549)" fill="#fff69a"/>
        <path id="Trazado_9105" data-name="Trazado 9105" d="M796.264,251.079h8.088v8.088h-8.088Z" transform="translate(-796.264 -251.079)" fill="#fff69a"/>
        <path id="Trazado_9106" data-name="Trazado 9106" d="M796.264,315.079h8.088v8.088h-8.088Z" transform="translate(-796.264 -298.902)" fill="#fff69a"/>
        <path id="Trazado_9107" data-name="Trazado 9107" d="M796.264,379.079h8.088v8.088h-8.088Z" transform="translate(-796.264 -346.726)" fill="#fff69a"/>
        <path id="Trazado_9108" data-name="Trazado 9108" d="M796.264,443.079h8.088v12.133h-8.088Z" transform="translate(-796.264 -394.549)" fill="#fff69a"/>
      </g>
      <path id="Trazado_9109" data-name="Trazado 9109" d="M970.507,121.145h-4.044V117.1a2.022,2.022,0,0,0-2.022-2.022h-8.088a2.022,2.022,0,0,0-2.022,2.022v4.044h-4.044a2.022,2.022,0,0,0-2.022,2.022v8.088a2.022,2.022,0,0,0,2.022,2.022h4.044v4.044a2.022,2.022,0,0,0,2.022,2.022h8.088a2.022,2.022,0,0,0,2.022-2.022v-4.044h4.044a2.022,2.022,0,0,0,2.022-2.022v-8.088A2.022,2.022,0,0,0,970.507,121.145Zm-2.022,8.088h-4.044a2.022,2.022,0,0,0-2.022,2.022V135.3h-4.044v-4.044a2.022,2.022,0,0,0-2.022-2.022h-4.044v-4.044h4.044a2.022,2.022,0,0,0,2.022-2.022v-4.044h4.044v4.044a2.022,2.022,0,0,0,2.022,2.022h4.044Z" transform="translate(-899.734 -106.991)"/>
      <path id="Trazado_9110" data-name="Trazado 9110" d="M886.286,271.212h50.552a2.022,2.022,0,0,0,2.022-2.022V261.1a2.022,2.022,0,0,0-2.022-2.022H886.286a2.022,2.022,0,0,0-2.022,2.022v8.088A2.022,2.022,0,0,0,886.286,271.212Zm2.022-8.088h46.508v4.044H888.308Z" transform="translate(-851.91 -214.593)"/>
      <path id="Trazado_9111" data-name="Trazado 9111" d="M758.286,196.316H875.568a2.022,2.022,0,0,0,2.022-2.022V109.366a2.022,2.022,0,0,0-2.022-2.022H853.324V85.1a2.022,2.022,0,0,0-2.022-2.022H782.551a2.022,2.022,0,0,0-2.022,2.022v22.243H758.286a2.022,2.022,0,0,0-2.022,2.022v84.928A2.022,2.022,0,0,0,758.286,196.316Zm95.038-84.928h20.221v4.044H853.324Zm0,8.088h20.221v64.707H869.5v-10.11a2.022,2.022,0,0,0-2.022-2.022h-8.088a2.022,2.022,0,0,0-2.022,2.022v10.11h-4.044ZM865.457,176.1v8.088h-4.044V176.1Zm-12.133,12.133h20.221v4.044H853.324Zm-54.6-2.022v6.066h-6.066V159.919h6.066Zm0-30.331h-6.066v-8.088h6.066Zm32.353,36.4H802.772v-4.044h28.309ZM814.9,159.919v10.11H810.86v4.044H814.9v10.11H802.772V159.919Zm-12.132-4.044v-8.088h4.044v8.088Zm8.088,0v-8.088H814.9v8.088Zm20.221,28.309H818.949v-10.11h4.044v-4.044h-4.044v-10.11h12.132Zm-12.132-28.309v-8.088h4.044v8.088Zm12.132,0h-4.044v-8.088h4.044Zm8.089,36.4h-4.044V159.919h4.044Zm0-36.4h-4.044v-8.088h4.044ZM792.662,87.123h48.53v32.353h-48.53Zm-8.089,0h4.044V121.5a2.022,2.022,0,0,0,2.022,2.022h52.574a2.022,2.022,0,0,0,2.022-2.022V87.123h4.044V192.272h-6.066V145.764a2.022,2.022,0,0,0-2.022-2.022H790.64a2.022,2.022,0,0,0-2.022,2.022v46.508h-4.044Zm-24.265,24.265h20.221v4.044H760.308Zm0,8.088h20.221v64.707h-4.044v-10.11a2.022,2.022,0,0,0-2.022-2.022h-8.088a2.022,2.022,0,0,0-2.022,2.022v10.11h-4.044ZM772.441,176.1v8.088H768.4V176.1Zm-12.132,12.133h20.221v4.044H760.308Z" transform="translate(-756.264 -83.079)"/>
      <path id="Trazado_9112" data-name="Trazado 9112" d="M1158.286,255.212h8.089a2.022,2.022,0,0,0,2.022-2.022V245.1a2.022,2.022,0,0,0-2.022-2.022h-8.089a2.022,2.022,0,0,0-2.022,2.022v8.088A2.022,2.022,0,0,0,1158.286,255.212Zm2.022-8.088h4.044v4.044h-4.044Z" transform="translate(-1055.159 -202.637)"/>
      <path id="Trazado_9113" data-name="Trazado 9113" d="M1158.286,319.212h8.089a2.022,2.022,0,0,0,2.022-2.022V309.1a2.022,2.022,0,0,0-2.022-2.022h-8.089a2.022,2.022,0,0,0-2.022,2.022v8.088A2.022,2.022,0,0,0,1158.286,319.212Zm2.022-8.088h4.044v4.044h-4.044Z" transform="translate(-1055.159 -250.46)"/>
      <path id="Trazado_9114" data-name="Trazado 9114" d="M1158.286,383.212h8.089a2.022,2.022,0,0,0,2.022-2.022V373.1a2.022,2.022,0,0,0-2.022-2.022h-8.089a2.022,2.022,0,0,0-2.022,2.022v8.088A2.022,2.022,0,0,0,1158.286,383.212Zm2.022-8.088h4.044v4.044h-4.044Z" transform="translate(-1055.159 -298.284)"/>
      <path id="Trazado_9115" data-name="Trazado 9115" d="M790.286,255.212h8.089a2.022,2.022,0,0,0,2.022-2.022V245.1a2.022,2.022,0,0,0-2.022-2.022h-8.089a2.022,2.022,0,0,0-2.022,2.022v8.088A2.022,2.022,0,0,0,790.286,255.212Zm2.022-8.088h4.044v4.044h-4.044Z" transform="translate(-780.176 -202.637)"/>
      <path id="Trazado_9116" data-name="Trazado 9116" d="M790.286,319.212h8.089a2.022,2.022,0,0,0,2.022-2.022V309.1a2.022,2.022,0,0,0-2.022-2.022h-8.089a2.022,2.022,0,0,0-2.022,2.022v8.088A2.022,2.022,0,0,0,790.286,319.212Zm2.022-8.088h4.044v4.044h-4.044Z" transform="translate(-780.176 -250.46)"/>
      <path id="Trazado_9117" data-name="Trazado 9117" d="M790.286,383.212h8.089a2.022,2.022,0,0,0,2.022-2.022V373.1a2.022,2.022,0,0,0-2.022-2.022h-8.089a2.022,2.022,0,0,0-2.022,2.022v8.088A2.022,2.022,0,0,0,790.286,383.212Zm2.022-8.088h4.044v4.044h-4.044Z" transform="translate(-780.176 -298.284)"/>
    </g>
    <g id="Grupo_5132" data-name="Grupo 5132" transform="translate(507.314 1540.596)">
      <path id="Trazado_9118" data-name="Trazado 9118" d="M273.413,267.083V323.7a8.088,8.088,0,1,1,8.088,8.088H176.352a8.088,8.088,0,1,1,8.088-8.088V267.083Z" transform="translate(-166.24 -228.661)" fill="#f7d881"/>
      <path id="Trazado_9119" data-name="Trazado 9119" d="M428.318,294.163c2.461,1.039,4.123,3.019,4.123,5.288,0,3.351-3.622,6.066-8.088,6.066s-8.088-2.716-8.088-6.066c0-2.269,1.662-4.248,4.123-5.288" transform="translate(-351.555 -248.896)" fill="#f2c351"/>
      <path id="Trazado_9120" data-name="Trazado 9120" d="M232.264,295.392h8.088a4.043,4.043,0,0,0,4.044-4.044v-5.739a6.065,6.065,0,0,1,4.147-5.755l9.9-3.3A6.067,6.067,0,0,0,262.6,270.8v-3.717h8.088v5.409a12.133,12.133,0,0,1-8.3,11.51l-8.521,2.841a2.021,2.021,0,0,0-1.381,1.919v2.586a4.043,4.043,0,0,0,4.044,4.044h40.442a4.043,4.043,0,0,0,4.044-4.044V267.083H309.1v24.265a4.043,4.043,0,0,0,4.044,4.044h8.088v8.088h-10.11A2.023,2.023,0,0,0,309.1,305.5v8.088a2.023,2.023,0,0,0,2.022,2.022h10.11V323.7h-10.11a2.023,2.023,0,0,0-2.022,2.022v6.066h-8.088V307.525a4.043,4.043,0,0,0-4.044-4.044h-18.2a4.043,4.043,0,0,0-4.044,4.044V331.79H266.64V303.481H252.485v1.6A48.161,48.161,0,0,1,244.4,331.79h-10.11l1.883-2.637a44.152,44.152,0,0,0,8.228-25.672H232.264Z" transform="translate(-214.063 -228.661)" fill="#8892a0"/>
      <path id="Trazado_9121" data-name="Trazado 9121" d="M168.264,299.79a8.088,8.088,0,1,1,16.177,0V243.171a8.088,8.088,0,1,0-16.177,0Z" transform="translate(-166.24 -204.75)" fill="#78b75b"/>
      <path id="Trazado_9122" data-name="Trazado 9122" d="M584.264,299.79a8.088,8.088,0,1,1,16.177,0V243.171a8.088,8.088,0,1,0-16.177,0Z" transform="translate(-477.091 -204.75)" fill="#78b75b"/>
      <path id="Trazado_9123" data-name="Trazado 9123" d="M394.463,171.613,409.022,152.2a18.2,18.2,0,1,0-29.118,0Z" transform="translate(-321.665 -121.059)" fill="#e47c6e"/>
      <circle id="Elipse_562" data-name="Elipse 562" cx="8.5" cy="8.5" r="8.5" transform="translate(63.62 10.404)" fill="#e7e4dd"/>
      <path id="Trazado_9124" data-name="Trazado 9124" d="M584.264,243.171V283.32a55.869,55.869,0,0,0,10.59-47.8,7.989,7.989,0,0,0-10.59,7.654Z" transform="translate(-477.091 -204.75)" fill="#96cc7f"/>
      <path id="Trazado_9125" data-name="Trazado 9125" d="M168.264,243.171V283.32a55.87,55.87,0,0,0,10.59-47.8,7.989,7.989,0,0,0-10.59,7.654Z" transform="translate(-166.24 -204.75)" fill="#96cc7f"/>
      <g id="Grupo_5131" data-name="Grupo 5131" transform="translate(0)">
        <path id="Trazado_9126" data-name="Trazado 9126" d="M275.515,143.382a10.13,10.13,0,0,0-9.9,8.092H246.195l3.033-4.046a20.219,20.219,0,1,0-32.354,0l3.035,4.046-39.637,0a10.11,10.11,0,0,0-20.017,2.02v56.621a10.122,10.122,0,0,0,10.108,10.11l105.153,0a10.122,10.122,0,0,0,10.11-10.11V153.5a10.124,10.124,0,0,0-10.112-10.115ZM265.407,200h-8.088v-8.086h8.088Zm0-12.131h-8.088a4.046,4.046,0,0,0-4.044,4.044V200a4.046,4.046,0,0,0,4.044,4.044h8.088v4.048l-8.088,0a4.046,4.046,0,0,0-4.044,4.044v4.046h-4.046l0-22.245a6.074,6.074,0,0,0-6.066-6.066H224.965a6.074,6.074,0,0,0-6.066,6.066V216.18h-4.046V189.892a2.02,2.02,0,0,0-2.022-2.022H198.678a2.02,2.02,0,0,0-2.022,2.022v1.593a45.976,45.976,0,0,1-7.2,24.694h-5.084a45.914,45.914,0,0,0,8.236-26.287,2.019,2.019,0,0,0-2.022-2.022h-10.11v-4.046h6.066a6.075,6.075,0,0,0,6.066-6.066l0-5.735a4.039,4.039,0,0,1,2.766-3.838l9.9-3.3a8.075,8.075,0,0,0,5.528-7.674v-1.692h4.05V158.9a10.106,10.106,0,0,1-6.916,9.593l-8.519,2.839a4.039,4.039,0,0,0-2.766,3.838v2.584a6.075,6.075,0,0,0,6.066,6.064h40.44a6.073,6.073,0,0,0,6.066-6.064l0-22.243h4.044v22.241a6.074,6.074,0,0,0,6.066,6.066h6.066Zm-20.223,28.311H222.943V193.939a2.023,2.023,0,0,1,2.022-2.022H243.16a2.023,2.023,0,0,1,2.022,2.022Zm-34.376,0H194.2a50.013,50.013,0,0,0,6.495-24.265h10.11Zm-22.241-38.422a2.024,2.024,0,0,1-2.022,2.022h-6.068V155.515l26.285,0v1.692A4.038,4.038,0,0,1,204,161.047l-9.9,3.3a8.078,8.078,0,0,0-5.532,7.676Zm76.84,2.022h-6.066a2.023,2.023,0,0,1-2.022-2.022V155.517h8.088Zm-32.353-60.661A16.175,16.175,0,0,1,245.991,145l-12.939,17.257L220.112,145a16.177,16.177,0,0,1,12.941-25.883Zm6.062,46.508c0,2.194-2.776,4.044-6.064,4.044s-6.066-1.85-6.066-4.044a3.439,3.439,0,0,1,1.555-2.645l2.9,3.86a2.022,2.022,0,0,0,3.235,0l2.894-3.858a3.442,3.442,0,0,1,1.551,2.643ZM226.1,159.735a7.417,7.417,0,0,0-3.163,5.892c0,4.461,4.534,8.088,10.11,8.088s10.108-3.628,10.108-8.088A7.427,7.427,0,0,0,240,159.735l3.165-4.218h2.022l0,22.241a2.023,2.023,0,0,1-2.022,2.022H202.72a2.023,2.023,0,0,1-2.022-2.022v-2.584l8.519-2.839A14.145,14.145,0,0,0,218.9,158.9v-3.385h4.044Zm-61.8-6.242a6.066,6.066,0,0,1,12.133,0v48.536a10.094,10.094,0,0,0-12.133,0Zm0,56.621a6.066,6.066,0,0,1,12.133,0,2.022,2.022,0,1,0,4.044,0v-18.2h8.042a41.88,41.88,0,0,1-7.8,22.476l-1.278,1.79h-9.073a6.075,6.075,0,0,1-6.064-6.066Zm111.217,6.068h-18.2l0-4.046,10.11,0h0a2.023,2.023,0,0,0,2.022-2.022,6.066,6.066,0,1,1,6.066,6.066Zm6.066-14.151a10.094,10.094,0,0,0-12.133,0V153.495a6.068,6.068,0,0,1,6.066-6.068,6.077,6.077,0,0,1,6.066,6.07Z" transform="translate(-160.256 -115.075)"/>
        <path id="Trazado_9127" data-name="Trazado 9127" d="M418.375,167.3a10.109,10.109,0,1,0-10.11-10.108A10.118,10.118,0,0,0,418.375,167.3Zm0-16.175a6.065,6.065,0,1,1-6.066,6.066A6.073,6.073,0,0,1,418.375,151.127Z" transform="translate(-345.577 -138.993)"/>
      </g>
    </g>
    <g id="Grupo_5133" data-name="Grupo 5133" transform="translate(132 1529.805)">
      <rect id="Rectángulo_2592" data-name="Rectángulo 2592" width="107.51" height="92.018" transform="translate(10.952 19.187)" fill="#e9eaeb"/>
      <rect id="Rectángulo_2593" data-name="Rectángulo 2593" width="13.649" height="92.018" transform="translate(104.813 19.187)" fill="#b9bbc1"/>
      <path id="Trazado_9128" data-name="Trazado 9128" d="M-913.638,97.176H-1021.9V82.07a2.185,2.185,0,0,1,2.185-2.185h103.889a2.185,2.185,0,0,1,2.185,2.185V97.176Z" transform="translate(1032.474 -77.989)" fill="#fdc74f"/>
      <path id="Trazado_9129" data-name="Trazado 9129" d="M-636.127,79.885h-11.464V91.256h13.649V82.07A2.185,2.185,0,0,0-636.127,79.885Z" transform="translate(752.779 -77.989)" fill="#fca629"/>
      <path id="Trazado_9130" data-name="Trazado 9130" d="M-1046.9,208.6h0a8.959,8.959,0,0,1-8.959-8.959v-7.3h17.918v7.3A8.959,8.959,0,0,1-1046.9,208.6Z" transform="translate(1057.851 -162.021)" fill="#e60d28"/>
      <path id="Trazado_9131" data-name="Trazado 9131" d="M-976.009,208.6h0a8.959,8.959,0,0,1-8.959-8.959v-7.3h17.918v7.3A8.959,8.959,0,0,1-976.009,208.6Z" transform="translate(1004.88 -162.021)" fill="#f2f2f2"/>
      <path id="Trazado_9132" data-name="Trazado 9132" d="M-905.119,208.6h0a8.959,8.959,0,0,1-8.959-8.959v-7.3h17.918v7.3A8.959,8.959,0,0,1-905.119,208.6Z" transform="translate(951.908 -162.021)" fill="#e60d28"/>
      <path id="Trazado_9133" data-name="Trazado 9133" d="M-834.23,208.6h0a8.959,8.959,0,0,1-8.959-8.959v-7.3h17.918v7.3A8.959,8.959,0,0,1-834.23,208.6Z" transform="translate(898.937 -162.021)" fill="#f2f2f2"/>
      <path id="Trazado_9134" data-name="Trazado 9134" d="M-763.34,208.6h0a8.959,8.959,0,0,1-8.959-8.959v-7.3h17.918v7.3A8.959,8.959,0,0,1-763.34,208.6Z" transform="translate(845.965 -162.021)" fill="#e60d28"/>
      <path id="Trazado_9135" data-name="Trazado 9135" d="M-692.451,208.6h0a8.959,8.959,0,0,1-8.959-8.959v-7.3h17.918v7.3A8.959,8.959,0,0,1-692.451,208.6Z" transform="translate(792.994 -162.021)" fill="#f2f2f2"/>
      <path id="Trazado_9136" data-name="Trazado 9136" d="M-621.562,208.6h0a8.959,8.959,0,0,1-8.959-8.959v-7.3H-612.6v7.3A8.959,8.959,0,0,1-621.562,208.6Z" transform="translate(740.023 -162.021)" fill="#e60d28"/>
      <path id="Trazado_9137" data-name="Trazado 9137" d="M-1037.938,141.927h-17.918l8.575-17.053h15.468Z" transform="translate(1057.85 -111.607)" fill="#fc502a"/>
      <path id="Trazado_9138" data-name="Trazado 9138" d="M-967.049,141.927h-17.918l6.125-17.053h15.468Z" transform="translate(1004.879 -111.607)" fill="#fff"/>
      <path id="Trazado_9139" data-name="Trazado 9139" d="M-896.159,141.927h-17.918l3.675-17.053h15.468Z" transform="translate(951.907 -111.607)" fill="#fc502a"/>
      <path id="Trazado_9140" data-name="Trazado 9140" d="M-825.27,141.927h-17.918l1.225-17.053H-826.5Z" transform="translate(898.936 -111.607)" fill="#fff"/>
      <path id="Trazado_9141" data-name="Trazado 9141" d="M-758,141.927H-775.92l-1.225-17.053h15.468Z" transform="translate(849.587 -111.607)" fill="#fc502a"/>
      <path id="Trazado_9142" data-name="Trazado 9142" d="M-694.355,141.927h-17.918l-3.675-17.053h15.468Z" transform="translate(803.858 -111.607)" fill="#fff"/>
      <path id="Trazado_9143" data-name="Trazado 9143" d="M-630.708,141.927h-17.918l-6.125-17.053h15.468Z" transform="translate(758.129 -111.607)" fill="#fc502a"/>
      <path id="Trazado_9144" data-name="Trazado 9144" d="M-934.713,479.083h-117.439a4.092,4.092,0,0,0-4.092,4.092v6a1.16,1.16,0,0,0,1.16,1.16h123.3a1.16,1.16,0,0,0,1.16-1.16v-6A4.092,4.092,0,0,0-934.713,479.083Z" transform="translate(1058.14 -376.285)" fill="#8b8996"/>
      <path id="Trazado_9145" data-name="Trazado 9145" d="M-603.811,479.083h-9.6v11.248h12.531a1.16,1.16,0,0,0,1.16-1.16v-6A4.092,4.092,0,0,0-603.811,479.083Z" transform="translate(727.237 -376.285)" fill="#706f7f"/>
      <path id="Trazado_9146" data-name="Trazado 9146" d="M-804.93,332.1h-55.184a1.63,1.63,0,0,1-1.63-1.63V300.1a1.63,1.63,0,0,1,1.63-1.63h55.184a1.63,1.63,0,0,1,1.63,1.63v30.365A1.63,1.63,0,0,1-804.93,332.1Z" transform="translate(912.802 -241.324)" fill="#00c6c8"/>
      <path id="Trazado_9147" data-name="Trazado 9147" d="M-672.626,298.469h-12.061V332.1h12.061a1.63,1.63,0,0,0,1.63-1.63V300.1A1.63,1.63,0,0,0-672.626,298.469Z" transform="translate(780.498 -241.324)" fill="#0fb0c0"/>
      <path id="Trazado_9148" data-name="Trazado 9148" d="M-966.84,344.121h-25.177V300.1a1.63,1.63,0,0,1,1.63-1.63h21.917a1.63,1.63,0,0,1,1.63,1.63v44.022Z" transform="translate(1010.147 -241.324)" fill="#00c6c8"/>
      <path id="Trazado_9149" data-name="Trazado 9149" d="M-934.514,298.469h-12.061v45.653h13.691V300.1A1.63,1.63,0,0,0-934.514,298.469Z" transform="translate(976.191 -241.324)" fill="#0fb0c0"/>
      <path id="Trazado_9150" data-name="Trazado 9150" d="M-925.848,379.193a1.9,1.9,0,0,0,1.9-1.9v-3.412a1.9,1.9,0,0,0-1.9-1.9,1.9,1.9,0,0,0-1.9,1.9V377.3A1.9,1.9,0,0,0-925.848,379.193Z" transform="translate(962.12 -296.261)"/>
      <path id="Trazado_9151" data-name="Trazado 9151" d="M-940.317,173.287h-3.069v-52.6A10.87,10.87,0,0,0-934.428,110v-7.3c0-.037,0-.074-.006-.11,0-.02,0-.041,0-.061a1.922,1.922,0,0,0-.032-.22s0-.008,0-.012a1.856,1.856,0,0,0-.057-.2c-.005-.017-.012-.033-.018-.05-.021-.057-.044-.112-.071-.166,0-.01-.008-.02-.012-.03l-8.382-16.669V76.466a4.086,4.086,0,0,0-4.081-4.081H-1033.3a1.9,1.9,0,0,0-1.9,1.9,1.9,1.9,0,0,0,1.9,1.9h86.2a.29.29,0,0,1,.289.289v7.291h-104.468V76.466a.29.29,0,0,1,.29-.289h8.864a1.9,1.9,0,0,0,1.9-1.9,1.9,1.9,0,0,0-1.9-1.9h-8.864a4.086,4.086,0,0,0-4.081,4.081v8.719l-8.382,16.669c0,.01-.008.02-.013.03-.026.054-.049.109-.07.166-.006.017-.013.033-.018.05a1.87,1.87,0,0,0-.057.2l0,.012a1.865,1.865,0,0,0-.032.22c0,.02,0,.041,0,.061,0,.037-.005.073-.005.11V110a10.871,10.871,0,0,0,8.959,10.686v52.6h-3.069a5.994,5.994,0,0,0-5.988,5.988v6a3.059,3.059,0,0,0,3.056,3.056h123.3a3.059,3.059,0,0,0,3.056-3.056v-6A5.994,5.994,0,0,0-940.317,173.287Zm2.1-63.282a7.071,7.071,0,0,1-7.063,7.063A7.071,7.071,0,0,1-952.346,110v-5.4h14.127V110Zm-7.848-22.457,6.668,13.262h-13.51l-4.763-13.262Zm-15.633,0,4.763,13.262h-13.692l-2.858-13.262Zm5.563,17.053V110a7.071,7.071,0,0,1-7.063,7.063A7.071,7.071,0,0,1-970.264,110v-5.4Zm-21.228-17.053,2.858,13.262h-13.806l-.953-13.262Zm3.31,17.053V110a7.071,7.071,0,0,1-7.063,7.063A7.072,7.072,0,0,1-988.182,110v-5.4Zm-30.951-17.053h11.939l.953,13.262h-13.845ZM-1006.1,104.6h14.127V110a7.071,7.071,0,0,1-7.063,7.063A7.071,7.071,0,0,1-1006.1,110Zm7.063,16.258a10.85,10.85,0,0,0,8.959-4.735,10.85,10.85,0,0,0,8.959,4.735,10.849,10.849,0,0,0,8.959-4.735,10.85,10.85,0,0,0,8.959,4.735,10.851,10.851,0,0,0,8.959-4.735,10.873,10.873,0,0,0,7.063,4.566v52.6h-71.363V131.161a3.53,3.53,0,0,0-3.526-3.526h-21.917a3.53,3.53,0,0,0-3.526,3.526v42.126h-3.386v-52.6a10.873,10.873,0,0,0,7.063-4.566,10.85,10.85,0,0,0,8.959,4.735,10.85,10.85,0,0,0,8.959-4.735,10.85,10.85,0,0,0,8.959,4.735,10.851,10.851,0,0,0,8.959-4.735A10.849,10.849,0,0,0-999.037,120.859Zm-23.3,10.567v41.861h-21.386V131.426Zm-19.6-21.422v-5.4h14.127V110a7.071,7.071,0,0,1-7.063,7.063A7.072,7.072,0,0,1-1041.937,110Zm21.228-22.457h11.9l-.953,13.262h-13.806Zm-3.31,17.053h14.127V110a7.071,7.071,0,0,1-7.063,7.063,7.071,7.071,0,0,1-7.063-7.063v-5.4Zm-.569-17.053-2.858,13.262h-13.692l4.763-13.262Zm-27.42,0h11.6l-4.763,13.262h-13.51ZM-1059.855,110v-5.4h14.127V110a7.071,7.071,0,0,1-7.063,7.063A7.072,7.072,0,0,1-1059.855,110Zm121.733,74.53h-121.831v-5.26a2.2,2.2,0,0,1,2.2-2.2h117.439a2.2,2.2,0,0,1,2.2,2.2v5.26Z" transform="translate(1063.744 -72.385)"/>
      <path id="Trazado_9152" data-name="Trazado 9152" d="M-869.244,294.495v30.366a3.53,3.53,0,0,0,3.526,3.526h55.184a3.53,3.53,0,0,0,3.526-3.526V294.495a3.53,3.53,0,0,0-3.526-3.526h-23.182a1.9,1.9,0,0,0-1.9,1.9,1.9,1.9,0,0,0,1.9,1.9H-810.8V324.6h-54.653V294.76h22.812a1.9,1.9,0,0,0,1.9-1.9,1.9,1.9,0,0,0-1.9-1.9h-23.077A3.53,3.53,0,0,0-869.244,294.495Z" transform="translate(918.406 -235.719)"/>
    </g>
    <g id="Farm_Field" data-name="Farm Field" transform="translate(319.69 1516.241)">
      <g id="Filled" transform="translate(0 10.11)">
        <path id="Trazado_9153" data-name="Trazado 9153" d="M-88.266,378.723v0c-27.858.14-37.83,10.107-37.83,10.107s-12.133,10.11-8.088,26.287a2.022,2.022,0,0,0,2.022,2.022h46.508v-38.42Z" transform="translate(215.068 -297.839)" fill="#49ad4d"/>
        <path id="Trazado_9154" data-name="Trazado 9154" d="M-415.611,106.723a12.132,12.132,0,0,1,12.133,12.133V181.54h-24.265V118.856A12.133,12.133,0,0,1-415.611,106.723Z" transform="translate(433.81 -94.59)" fill="#e2dbd5"/>
        <path id="Trazado_9155" data-name="Trazado 9155" d="M-403.479,226.037a41.4,41.4,0,0,1-24.265,13.721V270.7h24.265Z" transform="translate(433.81 -183.746)" fill="#d4ccc7"/>
        <ellipse id="Elipse_563" data-name="Elipse 563" cx="4.044" cy="4.044" rx="4.044" ry="4.044" transform="translate(8.088 32.353)" fill="#efebe8"/>
        <ellipse id="Elipse_564" data-name="Elipse 564" cx="2.022" cy="2.022" rx="2.022" ry="2.022" transform="translate(18.199 38.42)" fill="#efebe8"/>
        <path id="Trazado_9156" data-name="Trazado 9156" d="M-324.352,415.121s-23.942-35.91-123.348-36.392v-.006h-4.044v38.42H-322.33Z" transform="translate(451.744 -297.839)" fill="#81c784"/>
        <path id="Trazado_9157" data-name="Trazado 9157" d="M-210.572,448.791h68.455l-2.022-2.022s-9.974-14.955-43.763-25.692A54.768,54.768,0,0,1-210.572,448.791Z" transform="translate(271.531 -329.487)" fill="#66bb6a"/>
        <path id="Trazado_9158" data-name="Trazado 9158" d="M-3.656,242.723h0a8.088,8.088,0,0,1,8.088,8.088V258.9a8.088,8.088,0,0,1-8.088,8.088h0a8.088,8.088,0,0,1-8.088-8.088v-8.088A8.088,8.088,0,0,1-3.656,242.723Z" transform="translate(122.959 -196.215)" fill="#49ad4d"/>
        <path id="Trazado_9159" data-name="Trazado 9159" d="M-51.656,258.723h0a8.088,8.088,0,0,1,8.088,8.088V274.9a8.088,8.088,0,0,1-8.088,8.088h0a8.088,8.088,0,0,1-8.088-8.088v-8.088A8.088,8.088,0,0,1-51.656,258.723Z" transform="translate(158.827 -208.171)" fill="#81c784"/>
        <ellipse id="Elipse_565" data-name="Elipse 565" cx="14.155" cy="14.155" rx="14.155" ry="14.155" transform="translate(86.95)" fill="#ea6049"/>
        <path id="Trazado_9160" data-name="Trazado 9160" d="M-42.878,303.95a18.154,18.154,0,0,1-14.155,6.767c-.6,0-1.2-.035-1.789-.093a8.09,8.09,0,0,0,7.855,6.159,8.088,8.088,0,0,0,8.088-8.088Z" transform="translate(158.137 -241.966)" fill="#66bb6a"/>
        <ellipse id="Elipse_566" data-name="Elipse 566" cx="3.033" cy="3.033" rx="3.033" ry="3.033" transform="translate(101.105 52.574)" fill="#c8e6c9"/>
        <ellipse id="Elipse_567" data-name="Elipse 567" cx="2.022" cy="2.022" rx="2.022" ry="2.022" transform="translate(109.193 56.619)" fill="#c8e6c9"/>
        <path id="Trazado_9161" data-name="Trazado 9161" d="M-70.973,75.433c.4,10.907-8.971,20.485-20,20.029a14.152,14.152,0,0,0,20.014-.181,14.152,14.152,0,0,0-.015-19.848Z" transform="translate(182.161 -71.209)" fill="#de513e"/>
        <ellipse id="Elipse_568" data-name="Elipse 568" cx="4.044" cy="4.044" rx="4.044" ry="4.044" transform="translate(90.994 4.044)" fill="#f27c6d"/>
        <ellipse id="Elipse_569" data-name="Elipse 569" cx="2.022" cy="2.022" rx="2.022" ry="2.022" transform="translate(101.105 12.133)" fill="#f27c6d"/>
        <path id="Trazado_9162" data-name="Trazado 9162" d="M-355.744,290.723h18.2v30.331h-18.2Z" transform="translate(380.009 -232.082)" fill="#de513e"/>
        <path id="Trazado_9163" data-name="Trazado 9163" d="M-355.744,350.429v6.887h18.2V339.251A24.927,24.927,0,0,1-355.744,350.429Z" transform="translate(380.009 -268.344)" fill="#cf3f30"/>
        <path id="Trazado_9164" data-name="Trazado 9164" d="M-317.324,226.723h-18.2l-14.155,8.088-6.066,8.088h38.42Z" transform="translate(380.009 -184.259)" fill="#a1887f"/>
        <path id="Trazado_9165" data-name="Trazado 9165" d="M-330.687,226.723a24.606,24.606,0,0,1-22.006,12.107l-3.052,4.069h38.42V226.723Z" transform="translate(380.009 -184.259)" fill="#9c7b70"/>
        <path id="Trazado_9166" data-name="Trazado 9166" d="M-283.744,310.7v2.207H-243.3V282.578l-2.066-2.755A44.517,44.517,0,0,1-283.744,310.7Z" transform="translate(326.208 -223.937)" fill="#de513e"/>
        <path id="Trazado_9167" data-name="Trazado 9167" d="M-243.3,273.231h-40.442V242.9l6.066-8.088,14.155-8.088,14.155,8.088,6.066,8.088Z" transform="translate(326.208 -184.259)" fill="#ea6049"/>
        <path id="Trazado_9168" data-name="Trazado 9168" d="M-251.744,314.723h24.265v24.265h-24.265Z" transform="translate(302.296 -250.016)" fill="#fff"/>
        <ellipse id="Elipse_570" data-name="Elipse 570" cx="2.022" cy="2.022" rx="2.022" ry="2.022" transform="translate(40.442 44.486)" fill="#bcaaa4"/>
        <ellipse id="Elipse_571" data-name="Elipse 571" cx="2.022" cy="2.022" rx="2.022" ry="2.022" transform="translate(32.354 48.53)" fill="#bcaaa4"/>
        <g id="Grupo_5134" data-name="Grupo 5134" transform="translate(58.641 44.486)">
          <ellipse id="Elipse_572" data-name="Elipse 572" cx="3.033" cy="3.033" rx="3.033" ry="3.033" fill="#f27c6d"/>
          <ellipse id="Elipse_573" data-name="Elipse 573" cx="2.022" cy="2.022" rx="2.022" ry="2.022" transform="translate(8.088 4.044)" fill="#f27c6d"/>
        </g>
      </g>
      <g id="Outline" transform="translate(0 0)">
        <path id="Trazado_9169" data-name="Trazado 9169" d="M-59.643,447.168c-.362-.543-9.187-13.414-37.373-23.928a2.022,2.022,0,0,0-2.6,1.188,2.022,2.022,0,0,0,1.188,2.6c26.8,10,35.343,22.266,35.422,22.383a2.022,2.022,0,0,0,2.807.546A2.022,2.022,0,0,0-59.643,447.168Z" transform="translate(188.717 -320.898)"/>
        <path id="Trazado_9170" data-name="Trazado 9170" d="M-449.722,438.767c43.172,0,65.436,4.656,66.855,4.656a2.023,2.023,0,0,0,.321-4.019c-19.2-3.106-41.806-4.681-67.176-4.681a2.022,2.022,0,0,0-2.022,2.022A2.022,2.022,0,0,0-449.722,438.767Z" transform="translate(451.744 -329.574)"/>
        <path id="Trazado_9171" data-name="Trazado 9171" d="M-88.605,478.352c-.346-.289-8.76-7.132-33.368-12.877a2.022,2.022,0,0,0-2.429,1.509,2.022,2.022,0,0,0,1.509,2.429c32.321,7.546,31.744,15.149,34.546,11.787A2.022,2.022,0,0,0-88.605,478.352Z" transform="translate(207.181 -352.513)"/>
        <path id="Trazado_9172" data-name="Trazado 9172" d="M-449.722,478.767c13.126,0,19.109.263,20.227.263a2.023,2.023,0,0,0,.053-4.044c-6.517-.174-13.341-.263-20.28-.263a2.022,2.022,0,0,0-2.022,2.022A2.022,2.022,0,0,0-449.722,478.767Z" transform="translate(451.744 -359.464)"/>
        <path id="Trazado_9173" data-name="Trazado 9173" d="M-240.413,487.607c-.728-.28-18.384-6.892-65.378-9.35a2.022,2.022,0,0,0-2.117,1.923A2.022,2.022,0,0,0-306,482.3c62.178,3.252,65.009,12.451,66.751,7.925a2.022,2.022,0,0,0-1.161-2.613Z" transform="translate(344.265 -362.103)"/>
        <path id="Trazado_9174" data-name="Trazado 9174" d="M-393.1,514.723h-56.619a2.022,2.022,0,0,0-2.022,2.022,2.022,2.022,0,0,0,2.022,2.022H-393.1a2.022,2.022,0,0,0,2.022-2.022A2.022,2.022,0,0,0-393.1,514.723Z" transform="translate(451.744 -389.353)"/>
        <path id="Trazado_9175" data-name="Trazado 9175" d="M-49.37,281.054q-3.18,0-6.066.16v-4.2a2.022,2.022,0,0,0-2.022-2.022,2.022,2.022,0,0,0-2.022,2.022v4.5c-2.946.278-5.637.67-8.088,1.137v-3.82a10.127,10.127,0,0,0,8.088-9.908v-8.088a10.11,10.11,0,0,0-10.11-10.11,10.111,10.111,0,0,0-10.11,10.11v8.088a10.128,10.128,0,0,0,8.088,9.908v4.709a55.171,55.171,0,0,0-11,3.925,2.022,2.022,0,0,0-.921,2.708,2.022,2.022,0,0,0,2.708.921h0c5.55-2.735,15.513-5.994,31.46-5.994a2.022,2.022,0,0,0,2.022-2.022A2.022,2.022,0,0,0-49.37,281.054Zm-20.221-18.2a2.022,2.022,0,0,0-2.022,2.022v9.763a6.076,6.076,0,0,1-4.044-5.719v-8.088a6.066,6.066,0,0,1,6.066-6.066,6.066,6.066,0,0,1,6.066,6.066v8.088a6.075,6.075,0,0,1-4.044,5.719v-9.763A2.022,2.022,0,0,0-69.591,262.856Z" transform="translate(176.762 -192.082)"/>
        <path id="Trazado_9176" data-name="Trazado 9176" d="M-13.032,410.723a130.548,130.548,0,0,0-20.382,1.413,2.022,2.022,0,0,0-1.676,2.317,2.023,2.023,0,0,0,2.317,1.676,126.481,126.481,0,0,1,19.741-1.363,2.022,2.022,0,0,0,2.022-2.022A2.022,2.022,0,0,0-13.032,410.723Z" transform="translate(140.424 -311.641)"/>
        <path id="Trazado_9177" data-name="Trazado 9177" d="M22.7,442.723c-2.722,0-5.46.1-8.139.3a2.022,2.022,0,0,0,.3,4.033c2.58-.191,5.218-.288,7.841-.288a2.022,2.022,0,0,0,0-4.044Z" transform="translate(104.69 -335.552)"/>
        <path id="Trazado_9178" data-name="Trazado 9178" d="M-363.567,235.939c-.345.67-.214-1.415-.224,31.254a2.022,2.022,0,0,0,2.022,2.022h58.641a2.022,2.022,0,0,0,2.022-2.022c-.143-31.424.357-30.529-.4-31.545-6.438-8.49-6.04-8.265-6.681-8.631-15.106-8.631-14.391-8.355-15.158-8.355-18.969.092-18.327-.234-19.2.266l-14.155,8.088C-357.211,227.307-363.4,235.612-363.567,235.939Zm17.975,29.232h-14.155V238.883h14.155Zm19.384-10.11-7.251,7.251v-14.5Zm-4.391-10.11h14.5l-7.251,7.251Zm0,20.221,7.251-7.251,7.251,7.251Zm17.361-2.859-7.251-7.251,7.251-7.251Zm2.678-31.99,5.411,7.214v27.635h-4.044c0-23.829.34-22.99-.806-23.856a2.035,2.035,0,0,0-1.216-.409c-26.163,0-25.134-.316-25.947.9-.627.938-.214.4-.34,23.365h-4.044V237.535l5.411-7.214,12.788-7.308Zm-30.45-7.614h10.048c-7.873,4.563-7.716,4.264-8.158,4.853l-5.46,7.28h-13.144l3.389-4.518Z" transform="translate(386.034 -168.11)"/>
        <ellipse id="Elipse_574" data-name="Elipse 574" cx="2.022" cy="2.022" rx="2.022" ry="2.022" transform="translate(56.619 64.707)"/>
        <ellipse id="Elipse_575" data-name="Elipse 575" cx="2.022" cy="2.022" rx="2.022" ry="2.022" transform="translate(74.818 111.215)"/>
        <ellipse id="Elipse_576" data-name="Elipse 576" cx="2.022" cy="2.022" rx="2.022" ry="2.022" transform="translate(28.309 115.259)"/>
        <ellipse id="Elipse_577" data-name="Elipse 577" cx="2.022" cy="2.022" rx="2.022" ry="2.022" transform="translate(22.243 22.243)"/>
        <ellipse id="Elipse_578" data-name="Elipse 578" cx="2.022" cy="2.022" rx="2.022" ry="2.022" transform="translate(64.707 64.707)"/>
        <path id="Trazado_9179" data-name="Trazado 9179" d="M8.745,234.859a2.022,2.022,0,0,0,.657,3.99,6.063,6.063,0,0,1,7.063,5.984v8.088A6.054,6.054,0,0,1,13.2,258.3a2.022,2.022,0,1,0,1.831,3.606l.041-.022a10.085,10.085,0,0,0,5.432-8.965v-8.088a10.113,10.113,0,0,0-11.764-9.975Z" transform="translate(108.905 -180.127)"/>
        <path id="Trazado_9180" data-name="Trazado 9180" d="M-99.567,83.076A16.177,16.177,0,0,0-83.391,66.9,16.177,16.177,0,0,0-99.567,50.723,16.177,16.177,0,0,0-115.744,66.9,16.2,16.2,0,0,0-99.567,83.076Zm0-28.309A12.132,12.132,0,0,1-87.435,66.9,12.132,12.132,0,0,1-99.567,79.032,12.133,12.133,0,0,1-111.7,66.9,12.147,12.147,0,0,1-99.567,54.767Z" transform="translate(200.672 -42.635)"/>
        <ellipse id="Elipse_579" data-name="Elipse 579" cx="2.022" cy="2.022" rx="2.022" ry="2.022" transform="translate(99.083)"/>
        <ellipse id="Elipse_580" data-name="Elipse 580" cx="2.022" cy="2.022" rx="2.022" ry="2.022" transform="translate(80.884 8.088)"/>
        <ellipse id="Elipse_581" data-name="Elipse 581" cx="2.022" cy="2.022" rx="2.022" ry="2.022" transform="translate(117.282 40.442)"/>
        <ellipse id="Elipse_582" data-name="Elipse 582" cx="2.022" cy="2.022" rx="2.022" ry="2.022" transform="translate(115.259 6.066)"/>
        <ellipse id="Elipse_583" data-name="Elipse 583" cx="2.022" cy="2.022" rx="2.022" ry="2.022" transform="translate(82.906 38.42)"/>
        <ellipse id="Elipse_584" data-name="Elipse 584" cx="2.022" cy="2.022" rx="2.022" ry="2.022" transform="translate(121.326 22.243)"/>
        <ellipse id="Elipse_585" data-name="Elipse 585" cx="2.022" cy="2.022" rx="2.022" ry="2.022" transform="translate(76.84 22.243)"/>
        <ellipse id="Elipse_586" data-name="Elipse 586" cx="2.022" cy="2.022" rx="2.022" ry="2.022" transform="translate(99.083 44.486)"/>
        <path id="Trazado_9181" data-name="Trazado 9181" d="M-449.722,167.862a2.022,2.022,0,0,0-2.022,2.022,2.022,2.022,0,0,0,2.022,2.022h14.155a2.022,2.022,0,0,0,2.022-2.022,2.022,2.022,0,0,0-2.022-2.022h-8.088V117.309h20.221v12.133a2.022,2.022,0,0,0,2.022,2.022,2.022,2.022,0,0,0,2.022-2.022V117.309h2.022a2.022,2.022,0,0,0,2.022-2.022,2.022,2.022,0,0,0-2.022-2.022h-2.022a14.1,14.1,0,0,0-.815-4.742,2.022,2.022,0,0,0-2.583-1.228,2.022,2.022,0,0,0-1.228,2.583h0a10.068,10.068,0,0,1,.581,3.387h-20.221a10.164,10.164,0,0,1,8.608-10,2.022,2.022,0,0,0,1.7-2.3,2.022,2.022,0,0,0-2.3-1.7,14.233,14.233,0,0,0-12.057,14h-2.022a2.022,2.022,0,0,0-2.022,2.022,2.022,2.022,0,0,0,2.022,2.022h2.022v50.552Z" transform="translate(451.744 -78.89)"/>
      </g>
    </g>
    <text id="Pequeñas_Medianas_Grandes" data-name="Pequeñas
Medianas
Grandes" transform="translate(123 1811)" fill="#00223d" font-size="16" font-family="OpenSans, Open Sans"><tspan x="36.719" y="17">Pequeñas</tspan><tspan x="37.238" y="39">Medianas</tspan><tspan x="41.844" y="61">Grandes</tspan></text>
    <rect id="Rectángulo_2594" data-name="Rectángulo 2594" width="168" height="54" rx="27" transform="translate(110 1425)" fill="#0d47a0"/>
    <rect id="Rectángulo_2595" data-name="Rectángulo 2595" width="168" height="54" rx="27" transform="translate(298 1425)" fill="#0d47a0"/>
    <rect id="Rectángulo_2596" data-name="Rectángulo 2596" width="168" height="54" rx="27" transform="translate(486 1425)" fill="#0d47a0"/>
    <rect id="Rectángulo_2597" data-name="Rectángulo 2597" width="168" height="54" rx="27" transform="translate(674 1425)" fill="#0d47a0"/>
    <rect id="Rectángulo_2598" data-name="Rectángulo 2598" width="168" height="54" rx="27" transform="translate(862 1425)" fill="#0d47a0"/>
    <path id="Polígono_3" data-name="Polígono 3" d="M15,0,30,15H0Z" transform="translate(209 1494) rotate(180)" fill="#0d47a0"/>
    <path id="Polígono_4" data-name="Polígono 4" d="M15,0,30,15H0Z" transform="translate(397 1494) rotate(180)" fill="#0d47a0"/>
    <path id="Polígono_5" data-name="Polígono 5" d="M15,0,30,15H0Z" transform="translate(585 1494) rotate(180)" fill="#0d47a0"/>
    <path id="Polígono_6" data-name="Polígono 6" d="M15,0,30,15H0Z" transform="translate(773 1494) rotate(180)" fill="#0d47a0"/>
    <path id="Polígono_7" data-name="Polígono 7" d="M15,0,30,15H0Z" transform="translate(961 1494) rotate(180)" fill="#0d47a0"/>
    <text id="TAMAÑO" transform="translate(194 1458)" fill="#fff" font-size="16" font-family="OpenSans-Bold, Open Sans" font-weight="700"><tspan x="-36.086" y="0">TAMAÑO</tspan></text>
    <text id="ACTIVIDAD" transform="translate(382 1458)" fill="#fff" font-size="16" font-family="OpenSans-Bold, Open Sans" font-weight="700"><tspan x="-43.109" y="0">ACTIVIDAD</tspan></text>
    <text id="AMBITO" transform="translate(570 1458)" fill="#fff" font-size="16" font-family="OpenSans-Bold, Open Sans" font-weight="700"><tspan x="-32.086" y="0">AMBITO</tspan></text>
    <text id="PROPIEDAD" transform="translate(758 1458)" fill="#fff" font-size="16" font-family="OpenSans-Bold, Open Sans" font-weight="700"><tspan x="-46.188" y="0">PROPIEDAD</tspan></text>
    <text id="FORMA_JURÍDICA" data-name="FORMA JURÍDICA" transform="translate(946 1458)" fill="#fff" font-size="16" font-family="OpenSans-Bold, Open Sans" font-weight="700"><tspan x="-66.992" y="0">FORMA JURÍDICA</tspan></text>
    <text id="Del_sector_primario_agrícola_ganaderas_y_pesqueras_._Del_sector_secundario_mineras_industriales_y_de_construcción_._Del_sector_terciario_servicios_." data-name="Del sector primario (agrícola, ganaderas y pesqueras).

Del sector secundario (mineras, industriales y de construcción).

Del sector terciario (servicios)." transform="translate(307 1704)" fill="#00223d" font-size="16" font-family="OpenSans, Open Sans"><tspan x="0" y="17">Del sector primario </tspan><tspan x="0" y="39">(agrícola, ganaderas </tspan><tspan x="0" y="61">y pesqueras).</tspan><tspan x="0" y="83"></tspan><tspan x="0" y="105">Del sector </tspan><tspan x="0" y="127">secundario </tspan><tspan x="0" y="149">(mineras, </tspan><tspan x="0" y="171">industriales y de </tspan><tspan x="0" y="193">construcción).</tspan><tspan x="0" y="215"></tspan><tspan x="0" y="237">Del sector terciario </tspan><tspan x="0" y="259">(servicios).</tspan></text>
    <text id="Locales_Provinciales_Regionales_Nacionales_Multinacionales" data-name="Locales, Provinciales, Regionales, Nacionales, Multinacionales" transform="translate(493 1787)" fill="#00223d" font-size="16" font-family="OpenSans, Open Sans"><tspan x="47.469" y="17">Locales, </tspan><tspan x="30.574" y="39">Provinciales, </tspan><tspan x="34.68" y="61">Regionales, </tspan><tspan x="34.207" y="83">Nacionales, </tspan><tspan x="18.285" y="105">Multinacionales</tspan></text>
    <text id="Privadas_Públicas_Mixtas." data-name="Privadas,
Públicas,
Mixtas." transform="translate(682 1812)" fill="#00223d" font-size="16" font-family="OpenSans, Open Sans"><tspan x="42.309" y="17">Privadas,</tspan><tspan x="43.289" y="39">Públicas,</tspan><tspan x="49.344" y="61">Mixtas.</tspan></text>
    <text id="Individual_Social." data-name="Individual,
Social." transform="translate(869 1824)" fill="#00223d" font-size="16" font-family="OpenSans, Open Sans"><tspan x="38.656" y="17">Individual,</tspan><tspan x="53.344" y="39">Social.</tspan></text>
    <path id="Polígono_8" data-name="Polígono 8" d="M15,0,30,15H0Z" transform="translate(932 1658)" fill="#ffecb3"/>
    <path id="Polígono_9" data-name="Polígono 9" d="M15,0,30,15H0Z" transform="translate(744 1658)" fill="#ffecb3"/>
    <path id="Polígono_10" data-name="Polígono 10" d="M15,0,30,15H0Z" transform="translate(556 1658)" fill="#ffecb3"/>
    <path id="Polígono_11" data-name="Polígono 11" d="M15,0,30,15H0Z" transform="translate(368 1658)" fill="#ffecb3"/>
    <path id="Polígono_12" data-name="Polígono 12" d="M15,0,30,15H0Z" transform="translate(179 1658)" fill="#ffecb3"/>
  </g>
</svg>
