<svg xmlns="http://www.w3.org/2000/svg" width="732" height="568" viewBox="0 0 732 568">
  <g id="Grupo_10164" data-name="Grupo 10164" transform="translate(-204 -1301)">
    <g id="Grupo_10160" data-name="Grupo 10160" transform="translate(-35)">
      <line id="Línea_204" data-name="Línea 204" y1="44" transform="translate(605.5 1355.5)" fill="none" stroke="#234eae" stroke-miterlimit="10" stroke-width="5"/>
      <line id="Línea_206" data-name="Línea 206" y1="44" transform="translate(384 1399.5)" fill="none" stroke="#234eae" stroke-miterlimit="10" stroke-width="5"/>
      <line id="Línea_205" data-name="Línea 205" x2="441" transform="translate(384.5 1399.5)" fill="none" stroke="#234eae" stroke-miterlimit="10" stroke-width="5"/>
      <line id="Línea_207" data-name="Línea 207" y1="44" transform="translate(823 1399.5)" fill="none" stroke="#234eae" stroke-miterlimit="10" stroke-width="5"/>
      <rect id="Rectángulo_1837" data-name="Rectángulo 1837" width="355" height="56" rx="10" transform="translate(428 1301)" fill="#e4f39b"/>
      <text id="Características_cualitativas_" data-name="Características cualitativas " transform="translate(436 1309)" fill="#00223d" font-size="24" font-family="OpenSans-Bold, Open Sans" font-weight="700"><tspan x="0" y="26">Características cualitativas </tspan></text>
    </g>
    <g id="Grupo_3934" data-name="Grupo 3934" transform="translate(-166 304)">
      <rect id="rectangle" width="19" height="19" transform="translate(400 1466)" fill="none"/>
      <path id="path" d="M7.8,13.928l-3.3-3.3-1.1,1.1,4.4,4.4L17.227,6.7l-1.1-1.1Z" transform="translate(399.271 1464.799)" fill="#002b45" fill-rule="evenodd"/>
    </g>
    <g id="Grupo_3936" data-name="Grupo 3936" transform="translate(-166 348)">
      <rect id="rectangle-2" data-name="rectangle" width="19" height="19" transform="translate(400 1466)" fill="none"/>
      <path id="path-2" data-name="path" d="M7.8,13.928l-3.3-3.3-1.1,1.1,4.4,4.4L17.227,6.7l-1.1-1.1Z" transform="translate(399.271 1464.799)" fill="#002b45" fill-rule="evenodd"/>
    </g>
    <path id="Rectángulo_1841" data-name="Rectángulo 1841" d="M10,0H356a0,0,0,0,1,0,0V49a0,0,0,0,1,0,0H0a0,0,0,0,1,0,0V10A10,10,0,0,1,10,0Z" transform="translate(204 1430)" fill="#43a047"/>
    <path id="Rectángulo_2723" data-name="Rectángulo 2723" d="M0,0H346a10,10,0,0,1,10,10V49a0,0,0,0,1,0,0H0a0,0,0,0,1,0,0V0A0,0,0,0,1,0,0Z" transform="translate(580 1430)" fill="#43a047"/>
    <text id="NIIF_para_pymes" data-name="NIIF para pymes" transform="translate(240.333 1443)" fill="#fff" font-size="16" font-family="OpenSans-Bold, Open Sans" font-weight="700"><tspan x="0" y="17">NIIF para pymes</tspan></text>
    <rect id="Rectángulo_1878" data-name="Rectángulo 1878" width="356" height="53" transform="translate(204 1482)" fill="#e4f39b"/>
    <rect id="Rectángulo_2724" data-name="Rectángulo 2724" width="356" height="53" transform="translate(580 1482)" fill="#e4f39b"/>
    <text id="Características_fundamentales:" data-name="Características fundamentales:" transform="translate(240.333 1495)" fill="#00223d" font-size="16" font-family="OpenSans-Bold, Open Sans" font-weight="700"><tspan x="0" y="17">Características fundamentales:</tspan></text>
    <rect id="Rectángulo_1882" data-name="Rectángulo 1882" width="356" height="53" transform="translate(204 1707)" fill="#e4f39b"/>
    <rect id="Rectángulo_2726" data-name="Rectángulo 2726" width="356" height="53" transform="translate(580 1707)" fill="#e4f39b"/>
    <rect id="Rectángulo_1880" data-name="Rectángulo 1880" width="356" height="166" transform="translate(204 1538)" fill="#e4f39b"/>
    <rect id="Rectángulo_2725" data-name="Rectángulo 2725" width="356" height="166" transform="translate(580 1538)" fill="#e4f39b"/>
    <path id="Rectángulo_1884" data-name="Rectángulo 1884" d="M0,0H356a0,0,0,0,1,0,0V105a0,0,0,0,1,0,0H10A10,10,0,0,1,0,95V0A0,0,0,0,1,0,0Z" transform="translate(204 1764)" fill="#e4f39b"/>
    <path id="Rectángulo_2727" data-name="Rectángulo 2727" d="M0,0H356a0,0,0,0,1,0,0V95a10,10,0,0,1-10,10H0a0,0,0,0,1,0,0V0A0,0,0,0,1,0,0Z" transform="translate(580 1764)" fill="#e4f39b"/>
    <text id="Características_de_mejora" data-name="Características de mejora" transform="translate(240.333 1720)" fill="#00223d" font-size="16" font-family="OpenSans-Bold, Open Sans" font-weight="700"><tspan x="0" y="17">Características de mejora</tspan></text>
    <g id="Grupo_10162" data-name="Grupo 10162" transform="translate(-166 349)">
      <rect id="rectangle-3" data-name="rectangle" width="19" height="19" transform="translate(400 1466)" fill="none"/>
      <path id="path-3" data-name="path" d="M7.8,13.928l-3.3-3.3-1.1,1.1,4.4,4.4L17.227,6.7l-1.1-1.1Z" transform="translate(399.271 1464.799)" fill="#002b45" fill-rule="evenodd"/>
    </g>
    <text id="Comparabilidad_Oportunidad_Equilibrio_entre_costo_y_beneficio" data-name="Comparabilidad

Oportunidad
Equilibrio entre costo y beneficio" transform="translate(256 1770)" fill="#00223d" font-size="16" font-family="OpenSans, Open Sans"><tspan x="0" y="17">Comparabilidad</tspan><tspan x="0" y="39"></tspan><tspan x="0" y="61">Oportunidad</tspan><tspan x="0" y="83">Equilibrio entre costo y beneficio</tspan></text>
    <text id="Características_cualitativas_fundamentales" data-name="Características cualitativas
fundamentales" transform="translate(610 1487)" fill="#00223d" font-size="16" font-family="OpenSans-Bold, Open Sans" font-weight="700"><tspan x="0" y="17">Características cualitativas</tspan><tspan x="0" y="39">fundamentales</tspan></text>
    <text id="NIIF_plenas_marco_conceptual" data-name="NIIF plenas marco conceptual" transform="translate(610 1443)" fill="#fff" font-size="16" font-family="OpenSans-Bold, Open Sans" font-weight="700"><tspan x="0" y="17">NIIF plenas marco conceptual</tspan></text>
    <text id="Características_de_mejora-2" data-name="Características de mejora" transform="translate(610 1722)" fill="#00223d" font-size="16" font-family="OpenSans-Bold, Open Sans" font-weight="700"><tspan x="0" y="17">Características de mejora</tspan></text>
    <g id="Grupo_10159" data-name="Grupo 10159" transform="translate(-1)">
      <g id="Grupo_3931" data-name="Grupo 3931" transform="translate(211 126)">
        <rect id="rectangle-4" data-name="rectangle" width="19" height="19" transform="translate(400 1466)" fill="none"/>
        <path id="path-4" data-name="path" d="M7.8,13.928l-3.3-3.3-1.1,1.1,4.4,4.4L17.227,6.7l-1.1-1.1Z" transform="translate(399.271 1464.799)" fill="#002b45" fill-rule="evenodd"/>
      </g>
      <g id="Grupo_3933" data-name="Grupo 3933" transform="translate(211 147)">
        <rect id="rectangle-5" data-name="rectangle" width="19" height="19" transform="translate(400 1466)" fill="none"/>
        <path id="path-5" data-name="path" d="M7.8,13.928l-3.3-3.3-1.1,1.1,4.4,4.4L17.227,6.7l-1.1-1.1Z" transform="translate(399.271 1464.799)" fill="#002b45" fill-rule="evenodd"/>
      </g>
      <text id="_Relevancia_Materialidad_o_importancia_relativa_Representación_fiel_" data-name="
Relevancia
Materialidad o importancia relativa
Representación fiel
" transform="translate(633 1547)" fill="#00223d" font-size="16" font-family="OpenSans, Open Sans"><tspan x="0" y="17"></tspan><tspan x="0" y="39">Relevancia</tspan><tspan x="0" y="61">Materialidad o importancia relativa</tspan><tspan x="0" y="83">Representación fiel</tspan></text>
      <g id="Grupo_3932" data-name="Grupo 3932" transform="translate(211 103)">
        <rect id="rectangle-6" data-name="rectangle" width="19" height="19" transform="translate(400 1466)" fill="none"/>
        <path id="path-6" data-name="path" d="M7.8,13.928l-3.3-3.3-1.1,1.1,4.4,4.4L17.227,6.7l-1.1-1.1Z" transform="translate(399.271 1464.799)" fill="#002b45" fill-rule="evenodd"/>
      </g>
    </g>
    <g id="Grupo_10163" data-name="Grupo 10163" transform="translate(33)">
      <g id="Grupo_3938" data-name="Grupo 3938" transform="translate(177 349)">
        <rect id="rectangle-7" data-name="rectangle" width="19" height="19" transform="translate(400 1466)" fill="none"/>
        <path id="path-7" data-name="path" d="M7.8,13.928l-3.3-3.3-1.1,1.1,4.4,4.4L17.227,6.7l-1.1-1.1Z" transform="translate(399.271 1464.799)" fill="#002b45" fill-rule="evenodd"/>
      </g>
      <g id="Grupo_3940" data-name="Grupo 3940" transform="translate(177 372)">
        <rect id="rectangle-8" data-name="rectangle" width="19" height="19" transform="translate(400 1466)" fill="none"/>
        <path id="path-8" data-name="path" d="M7.8,13.928l-3.3-3.3-1.1,1.1,4.4,4.4L17.227,6.7l-1.1-1.1Z" transform="translate(399.271 1464.799)" fill="#002b45" fill-rule="evenodd"/>
      </g>
      <text id="Comparabilidad_Verificabilidad_Oportunidad_Comprensibilidad" data-name="Comparabilidad
Verificabilidad
Oportunidad
Comprensibilidad" transform="translate(599 1770)" fill="#00223d" font-size="16" font-family="OpenSans, Open Sans"><tspan x="0" y="17">Comparabilidad</tspan><tspan x="0" y="39">Verificabilidad</tspan><tspan x="0" y="61">Oportunidad</tspan><tspan x="0" y="83">Comprensibilidad</tspan></text>
      <g id="Grupo_3937" data-name="Grupo 3937" transform="translate(177 326)">
        <rect id="rectangle-9" data-name="rectangle" width="19" height="19" transform="translate(400 1466)" fill="none"/>
        <path id="path-9" data-name="path" d="M7.8,13.928l-3.3-3.3-1.1,1.1,4.4,4.4L17.227,6.7l-1.1-1.1Z" transform="translate(399.271 1464.799)" fill="#002b45" fill-rule="evenodd"/>
      </g>
      <g id="Grupo_3939" data-name="Grupo 3939" transform="translate(177 307)">
        <rect id="rectangle-10" data-name="rectangle" width="19" height="19" transform="translate(400 1466)" fill="none"/>
        <path id="path-10" data-name="path" d="M7.8,13.928l-3.3-3.3-1.1,1.1,4.4,4.4L17.227,6.7l-1.1-1.1Z" transform="translate(399.271 1464.799)" fill="#002b45" fill-rule="evenodd"/>
      </g>
    </g>
    <g id="Grupo_10161" data-name="Grupo 10161" transform="translate(-166 307)">
      <rect id="rectangle-11" data-name="rectangle" width="19" height="19" transform="translate(400 1466)" fill="none"/>
      <path id="path-11" data-name="path" d="M7.8,13.928l-3.3-3.3-1.1,1.1,4.4,4.4L17.227,6.7l-1.1-1.1Z" transform="translate(399.271 1464.799)" fill="#002b45" fill-rule="evenodd"/>
    </g>
    <g id="Grupo_10158" data-name="Grupo 10158">
      <g id="Grupo_962" data-name="Grupo 962" transform="translate(-166 78)">
        <rect id="rectangle-12" data-name="rectangle" width="19" height="19" transform="translate(400 1466)" fill="none"/>
        <path id="path-12" data-name="path" d="M7.8,13.928l-3.3-3.3-1.1,1.1,4.4,4.4L17.227,6.7l-1.1-1.1Z" transform="translate(399.271 1464.799)" fill="#002b45" fill-rule="evenodd"/>
      </g>
      <text id="Comprensibilidad_Relevancia_Materialidad_o_importancia_relativa_Fiabilidad_Esencia_sobre_la_forma_Prudencia_Integridad" data-name="Comprensibilidad
Relevancia
Materialidad o importancia relativa
Fiabilidad
Esencia sobre la forma
Prudencia
Integridad" transform="translate(256 1544)" fill="#00223d" font-size="16" font-family="OpenSans, Open Sans"><tspan x="0" y="17">Comprensibilidad</tspan><tspan x="0" y="39">Relevancia</tspan><tspan x="0" y="61">Materialidad o importancia relativa</tspan><tspan x="0" y="83">Fiabilidad</tspan><tspan x="0" y="105">Esencia sobre la forma</tspan><tspan x="0" y="127">Prudencia</tspan><tspan x="0" y="149">Integridad</tspan></text>
      <g id="Grupo_3925" data-name="Grupo 3925" transform="translate(-166 100)">
        <rect id="rectangle-13" data-name="rectangle" width="19" height="19" transform="translate(400 1466)" fill="none"/>
        <path id="path-13" data-name="path" d="M7.8,13.928l-3.3-3.3-1.1,1.1,4.4,4.4L17.227,6.7l-1.1-1.1Z" transform="translate(399.271 1464.799)" fill="#002b45" fill-rule="evenodd"/>
      </g>
      <g id="Grupo_3926" data-name="Grupo 3926" transform="translate(-166 122)">
        <rect id="rectangle-14" data-name="rectangle" width="19" height="19" transform="translate(400 1466)" fill="none"/>
        <path id="path-14" data-name="path" d="M7.8,13.928l-3.3-3.3-1.1,1.1,4.4,4.4L17.227,6.7l-1.1-1.1Z" transform="translate(399.271 1464.799)" fill="#002b45" fill-rule="evenodd"/>
      </g>
      <g id="Grupo_3927" data-name="Grupo 3927" transform="translate(-166 144)">
        <rect id="rectangle-15" data-name="rectangle" width="19" height="19" transform="translate(400 1466)" fill="none"/>
        <path id="path-15" data-name="path" d="M7.8,13.928l-3.3-3.3-1.1,1.1,4.4,4.4L17.227,6.7l-1.1-1.1Z" transform="translate(399.271 1464.799)" fill="#002b45" fill-rule="evenodd"/>
      </g>
      <g id="Grupo_3928" data-name="Grupo 3928" transform="translate(-166 166)">
        <rect id="rectangle-16" data-name="rectangle" width="19" height="19" transform="translate(400 1466)" fill="none"/>
        <path id="path-16" data-name="path" d="M7.8,13.928l-3.3-3.3-1.1,1.1,4.4,4.4L17.227,6.7l-1.1-1.1Z" transform="translate(399.271 1464.799)" fill="#002b45" fill-rule="evenodd"/>
      </g>
      <g id="Grupo_3929" data-name="Grupo 3929" transform="translate(-166 188)">
        <rect id="rectangle-17" data-name="rectangle" width="19" height="19" transform="translate(400 1466)" fill="none"/>
        <path id="path-17" data-name="path" d="M7.8,13.928l-3.3-3.3-1.1,1.1,4.4,4.4L17.227,6.7l-1.1-1.1Z" transform="translate(399.271 1464.799)" fill="#002b45" fill-rule="evenodd"/>
      </g>
      <g id="Grupo_3930" data-name="Grupo 3930" transform="translate(-166 210)">
        <rect id="rectangle-18" data-name="rectangle" width="19" height="19" transform="translate(400 1466)" fill="none"/>
        <path id="path-18" data-name="path" d="M7.8,13.928l-3.3-3.3-1.1,1.1,4.4,4.4L17.227,6.7l-1.1-1.1Z" transform="translate(399.271 1464.799)" fill="#002b45" fill-rule="evenodd"/>
      </g>
    </g>
  </g>
</svg>
